G75*
%MOIN*%
%OFA0B0*%
%FSLAX25Y25*%
%IPPOS*%
%LPD*%
%AMOC8*
5,1,8,0,0,1.08239X$1,22.5*
%
%ADD10C,0.01100*%
%ADD11C,0.01000*%
D10*
X0005852Y0126066D02*
X0007820Y0130002D01*
X0010329Y0129018D02*
X0011313Y0130002D01*
X0014266Y0130002D01*
X0013281Y0128034D02*
X0011313Y0128034D01*
X0010329Y0129018D01*
X0010329Y0126066D02*
X0013281Y0126066D01*
X0014266Y0127050D01*
X0013281Y0128034D01*
X0016774Y0127050D02*
X0017758Y0126066D01*
X0020711Y0126066D01*
X0023220Y0127050D02*
X0024204Y0126066D01*
X0026172Y0126066D01*
X0027157Y0127050D01*
X0027157Y0129018D01*
X0026172Y0130002D01*
X0024204Y0130002D01*
X0023220Y0129018D01*
X0023220Y0127050D01*
X0020711Y0130002D02*
X0017758Y0130002D01*
X0016774Y0129018D01*
X0016774Y0127050D01*
X0005852Y0126066D02*
X0003883Y0130002D01*
X0029665Y0130002D02*
X0029665Y0126066D01*
X0029665Y0128034D02*
X0031634Y0130002D01*
X0032618Y0130002D01*
X0035037Y0129018D02*
X0036021Y0130002D01*
X0037989Y0130002D01*
X0038973Y0129018D01*
X0038973Y0128034D01*
X0035037Y0128034D01*
X0035037Y0127050D02*
X0035037Y0129018D01*
X0035037Y0127050D02*
X0036021Y0126066D01*
X0037989Y0126066D01*
D11*
X0154908Y0007406D02*
X0150971Y0003469D01*
X0154908Y0007406D02*
X0154908Y0018446D01*
X0154908Y0024352D02*
X0154908Y0035393D01*
X0154908Y0041298D02*
X0154908Y0052339D01*
X0154908Y0058244D02*
X0154908Y0069285D01*
X0154908Y0075191D02*
X0154908Y0086231D01*
X0154908Y0092137D02*
X0154908Y0103178D01*
X0154908Y0109083D02*
X0154908Y0120124D01*
X0154908Y0126029D02*
X0154908Y0137070D01*
X0151514Y0135358D02*
X0162103Y0135358D01*
X0166719Y0136984D02*
X0166719Y0126200D01*
X0166719Y0120295D02*
X0166719Y0109511D01*
X0166719Y0103605D02*
X0166719Y0092821D01*
X0166719Y0086916D02*
X0166719Y0076132D01*
X0166719Y0070226D02*
X0166719Y0059442D01*
X0166719Y0053537D02*
X0166719Y0042753D01*
X0166719Y0036847D02*
X0166719Y0026064D01*
X0166719Y0020158D02*
X0166719Y0009374D01*
X0174593Y0001500D01*
X0267113Y0019217D02*
X0267113Y0030278D01*
X0267113Y0036183D02*
X0267113Y0047244D01*
X0267113Y0053150D02*
X0267113Y0064211D01*
X0267113Y0070116D02*
X0267113Y0081178D01*
X0267113Y0087083D02*
X0267113Y0098144D01*
X0267113Y0104050D02*
X0267113Y0115111D01*
X0267113Y0121016D02*
X0267113Y0132077D01*
X0266977Y0135358D02*
X0277566Y0135358D01*
X0278924Y0134702D02*
X0278924Y0123828D01*
X0278924Y0117923D02*
X0278924Y0107049D01*
X0278924Y0101144D02*
X0278924Y0090270D01*
X0278924Y0084365D02*
X0278924Y0073491D01*
X0278924Y0067585D02*
X0278924Y0056712D01*
X0278924Y0050806D02*
X0278924Y0039933D01*
X0278924Y0034027D02*
X0278924Y0023154D01*
X0288766Y0013311D01*
X0379318Y0023154D02*
X0379318Y0034027D01*
X0379318Y0039933D02*
X0379318Y0050806D01*
X0379318Y0056712D02*
X0379318Y0067585D01*
X0379318Y0073491D02*
X0379318Y0084365D01*
X0379318Y0090270D02*
X0379318Y0101144D01*
X0379318Y0107049D02*
X0379318Y0117923D01*
X0379318Y0123828D02*
X0379318Y0134702D01*
X0376535Y0135358D02*
X0365945Y0135358D01*
X0360040Y0135358D02*
X0349451Y0135358D01*
X0343545Y0135358D02*
X0332956Y0135358D01*
X0327050Y0135358D02*
X0316461Y0135358D01*
X0310556Y0135358D02*
X0299967Y0135358D01*
X0294061Y0135358D02*
X0283472Y0135358D01*
X0278924Y0140608D02*
X0278924Y0151481D01*
X0280963Y0147169D02*
X0291860Y0147169D01*
X0297765Y0147169D02*
X0308662Y0147169D01*
X0314568Y0147169D02*
X0325465Y0147169D01*
X0331370Y0147169D02*
X0342268Y0147169D01*
X0348173Y0147169D02*
X0359070Y0147169D01*
X0364976Y0147169D02*
X0375873Y0147169D01*
X0379318Y0151481D02*
X0379318Y0140608D01*
X0382440Y0135358D02*
X0393029Y0135358D01*
X0391129Y0130437D02*
X0391129Y0141756D01*
X0392675Y0147169D02*
X0381778Y0147169D01*
X0391129Y0147661D02*
X0391129Y0158980D01*
X0391129Y0164886D02*
X0391129Y0176205D01*
X0391129Y0182110D02*
X0391129Y0193429D01*
X0391129Y0199335D02*
X0391129Y0210654D01*
X0391129Y0216559D02*
X0391129Y0227878D01*
X0391129Y0233783D02*
X0391129Y0245102D01*
X0390472Y0247563D02*
X0379974Y0247563D01*
X0379318Y0252156D02*
X0379318Y0241283D01*
X0379318Y0235377D02*
X0379318Y0224503D01*
X0379318Y0218598D02*
X0379318Y0207724D01*
X0379318Y0201819D02*
X0379318Y0190945D01*
X0379318Y0185040D02*
X0379318Y0174166D01*
X0379318Y0168260D02*
X0379318Y0157387D01*
X0398581Y0147169D02*
X0409478Y0147169D01*
X0415383Y0147169D02*
X0426280Y0147169D01*
X0432186Y0147169D02*
X0443083Y0147169D01*
X0448989Y0147169D02*
X0459886Y0147169D01*
X0465791Y0147169D02*
X0476688Y0147169D01*
X0482594Y0147169D02*
X0493491Y0147169D01*
X0491997Y0135358D02*
X0481408Y0135358D01*
X0475503Y0135358D02*
X0464914Y0135358D01*
X0459008Y0135358D02*
X0448419Y0135358D01*
X0442513Y0135358D02*
X0431924Y0135358D01*
X0426019Y0135358D02*
X0415429Y0135358D01*
X0409524Y0135358D02*
X0398935Y0135358D01*
X0391129Y0124531D02*
X0391129Y0113213D01*
X0391129Y0107307D02*
X0391129Y0095988D01*
X0391129Y0090083D02*
X0391129Y0078764D01*
X0391129Y0072858D02*
X0391129Y0061539D01*
X0391129Y0055634D02*
X0391129Y0044315D01*
X0391129Y0038409D02*
X0391129Y0027091D01*
X0399003Y0019217D01*
X0497903Y0135358D02*
X0508492Y0135358D01*
X0514398Y0135358D02*
X0524987Y0135358D01*
X0513176Y0239689D02*
X0505302Y0247563D01*
X0494803Y0247563D01*
X0488898Y0247563D02*
X0478399Y0247563D01*
X0472493Y0247563D02*
X0461995Y0247563D01*
X0456089Y0247563D02*
X0445591Y0247563D01*
X0439685Y0247563D02*
X0429186Y0247563D01*
X0423281Y0247563D02*
X0412782Y0247563D01*
X0406877Y0247563D02*
X0396378Y0247563D01*
X0391129Y0251008D02*
X0391129Y0262327D01*
X0386207Y0259374D02*
X0397034Y0259374D01*
X0402940Y0259374D02*
X0413766Y0259374D01*
X0419672Y0259374D02*
X0430499Y0259374D01*
X0436404Y0259374D02*
X0447231Y0259374D01*
X0453136Y0259374D02*
X0463963Y0259374D01*
X0469869Y0259374D02*
X0480696Y0259374D01*
X0486601Y0259374D02*
X0497428Y0259374D01*
X0391129Y0268232D02*
X0391129Y0279551D01*
X0391129Y0285457D02*
X0391129Y0296776D01*
X0391129Y0302681D02*
X0391129Y0314000D01*
X0391129Y0319906D02*
X0391129Y0331224D01*
X0391129Y0337130D02*
X0391129Y0348449D01*
X0391129Y0354354D02*
X0391129Y0365673D01*
X0379318Y0369610D02*
X0379318Y0358737D01*
X0379318Y0352831D02*
X0379318Y0341957D01*
X0379318Y0336052D02*
X0379318Y0325178D01*
X0379318Y0319273D02*
X0379318Y0308399D01*
X0379318Y0302494D02*
X0379318Y0291620D01*
X0379318Y0285714D02*
X0379318Y0274841D01*
X0379318Y0268935D02*
X0379318Y0258062D01*
X0380302Y0259374D02*
X0369475Y0259374D01*
X0363570Y0259374D02*
X0352743Y0259374D01*
X0346837Y0259374D02*
X0336010Y0259374D01*
X0330105Y0259374D02*
X0319278Y0259374D01*
X0313373Y0259374D02*
X0302546Y0259374D01*
X0296640Y0259374D02*
X0285814Y0259374D01*
X0279908Y0259374D02*
X0269081Y0259374D01*
X0267113Y0256749D02*
X0267113Y0267810D01*
X0267113Y0273716D02*
X0267113Y0284777D01*
X0267113Y0290683D02*
X0267113Y0301744D01*
X0267113Y0307649D02*
X0267113Y0318710D01*
X0267113Y0324616D02*
X0267113Y0335677D01*
X0267113Y0341582D02*
X0267113Y0352644D01*
X0267113Y0358549D02*
X0267113Y0369610D01*
X0253333Y0383390D01*
X0278924Y0369610D02*
X0278924Y0358737D01*
X0278924Y0352831D02*
X0278924Y0341957D01*
X0278924Y0336052D02*
X0278924Y0325178D01*
X0278924Y0319273D02*
X0278924Y0308399D01*
X0278924Y0302494D02*
X0278924Y0291620D01*
X0278924Y0285714D02*
X0278924Y0274841D01*
X0278924Y0268935D02*
X0278924Y0258062D01*
X0278924Y0252156D02*
X0278924Y0241283D01*
X0278924Y0235377D02*
X0278924Y0224503D01*
X0278924Y0218598D02*
X0278924Y0207724D01*
X0278924Y0201819D02*
X0278924Y0190945D01*
X0278924Y0185040D02*
X0278924Y0174166D01*
X0278924Y0168260D02*
X0278924Y0157387D01*
X0267113Y0154950D02*
X0267113Y0166011D01*
X0267113Y0171916D02*
X0267113Y0182977D01*
X0267113Y0188883D02*
X0267113Y0199944D01*
X0267113Y0205849D02*
X0267113Y0216911D01*
X0267113Y0222816D02*
X0267113Y0233877D01*
X0267113Y0239783D02*
X0267113Y0250844D01*
X0265144Y0247563D02*
X0275643Y0247563D01*
X0281549Y0247563D02*
X0292047Y0247563D01*
X0297953Y0247563D02*
X0308451Y0247563D01*
X0314357Y0247563D02*
X0324856Y0247563D01*
X0330761Y0247563D02*
X0341260Y0247563D01*
X0347165Y0247563D02*
X0357664Y0247563D01*
X0363570Y0247563D02*
X0374068Y0247563D01*
X0263176Y0259374D02*
X0252349Y0259374D01*
X0246444Y0259374D02*
X0235617Y0259374D01*
X0229711Y0259374D02*
X0218885Y0259374D01*
X0212979Y0259374D02*
X0202152Y0259374D01*
X0196247Y0259374D02*
X0185420Y0259374D01*
X0179514Y0259374D02*
X0168688Y0259374D01*
X0166719Y0259716D02*
X0166719Y0270500D01*
X0166719Y0276406D02*
X0166719Y0287190D01*
X0166719Y0293095D02*
X0166719Y0303879D01*
X0166719Y0309785D02*
X0166719Y0320569D01*
X0166719Y0326474D02*
X0166719Y0337258D01*
X0166719Y0343164D02*
X0166719Y0353948D01*
X0166719Y0359853D02*
X0166719Y0370637D01*
X0166719Y0376543D02*
X0166719Y0387327D01*
X0154908Y0391264D02*
X0154908Y0380223D01*
X0154908Y0374318D02*
X0154908Y0363277D01*
X0154908Y0357371D02*
X0154908Y0346331D01*
X0154908Y0340425D02*
X0154908Y0329384D01*
X0154908Y0323479D02*
X0154908Y0312438D01*
X0154908Y0306533D02*
X0154908Y0295492D01*
X0154908Y0289586D02*
X0154908Y0278546D01*
X0154908Y0272640D02*
X0154908Y0261599D01*
X0151955Y0259374D02*
X0162782Y0259374D01*
X0154908Y0255694D02*
X0154908Y0244653D01*
X0150315Y0247563D02*
X0160814Y0247563D01*
X0166719Y0247563D02*
X0177218Y0247563D01*
X0183123Y0247563D02*
X0193622Y0247563D01*
X0199528Y0247563D02*
X0210026Y0247563D01*
X0215932Y0247563D02*
X0226430Y0247563D01*
X0232336Y0247563D02*
X0242835Y0247563D01*
X0248740Y0247563D02*
X0259239Y0247563D01*
X0166719Y0243027D02*
X0166719Y0253811D01*
X0166719Y0237121D02*
X0166719Y0226337D01*
X0166719Y0220432D02*
X0166719Y0209648D01*
X0166719Y0203742D02*
X0166719Y0192958D01*
X0166719Y0187053D02*
X0166719Y0176269D01*
X0166719Y0170363D02*
X0166719Y0159579D01*
X0166719Y0153674D02*
X0166719Y0142890D01*
X0163345Y0147169D02*
X0174242Y0147169D01*
X0180147Y0147169D02*
X0191044Y0147169D01*
X0196950Y0147169D02*
X0207847Y0147169D01*
X0213752Y0147169D02*
X0224649Y0147169D01*
X0230555Y0147169D02*
X0241452Y0147169D01*
X0247358Y0147169D02*
X0258255Y0147169D01*
X0264160Y0147169D02*
X0275057Y0147169D01*
X0267113Y0149044D02*
X0267113Y0137983D01*
X0261072Y0135358D02*
X0250482Y0135358D01*
X0244577Y0135358D02*
X0233988Y0135358D01*
X0228082Y0135358D02*
X0217493Y0135358D01*
X0211587Y0135358D02*
X0200998Y0135358D01*
X0195093Y0135358D02*
X0184504Y0135358D01*
X0178598Y0135358D02*
X0168009Y0135358D01*
X0154908Y0142976D02*
X0154908Y0154016D01*
X0154908Y0159922D02*
X0154908Y0170963D01*
X0154908Y0176868D02*
X0154908Y0187909D01*
X0154908Y0193814D02*
X0154908Y0204855D01*
X0154908Y0210761D02*
X0154908Y0221801D01*
X0154908Y0227707D02*
X0154908Y0238748D01*
X0144409Y0247563D02*
X0133911Y0247563D01*
X0128005Y0247563D02*
X0117507Y0247563D01*
X0111601Y0247563D02*
X0101102Y0247563D01*
X0095197Y0247563D02*
X0084698Y0247563D01*
X0078793Y0247563D02*
X0068294Y0247563D01*
X0062388Y0247563D02*
X0051890Y0247563D01*
X0045984Y0247563D02*
X0035486Y0247563D01*
X0029580Y0247563D02*
X0019081Y0247563D01*
X0034829Y0259374D02*
X0021050Y0273154D01*
X0034829Y0259374D02*
X0045656Y0259374D01*
X0051562Y0259374D02*
X0062388Y0259374D01*
X0068294Y0259374D02*
X0079121Y0259374D01*
X0085026Y0259374D02*
X0095853Y0259374D01*
X0101759Y0259374D02*
X0112585Y0259374D01*
X0118491Y0259374D02*
X0129318Y0259374D01*
X0135223Y0259374D02*
X0146050Y0259374D01*
X0028924Y0147169D02*
X0019081Y0157012D01*
X0028924Y0147169D02*
X0039821Y0147169D01*
X0045726Y0147169D02*
X0056624Y0147169D01*
X0062529Y0147169D02*
X0073426Y0147169D01*
X0079332Y0147169D02*
X0090229Y0147169D01*
X0096134Y0147169D02*
X0107031Y0147169D01*
X0112937Y0147169D02*
X0123834Y0147169D01*
X0129739Y0147169D02*
X0140636Y0147169D01*
X0146542Y0147169D02*
X0157439Y0147169D01*
X0145609Y0135358D02*
X0135019Y0135358D01*
X0129114Y0135358D02*
X0118525Y0135358D01*
X0112619Y0135358D02*
X0102030Y0135358D01*
X0096125Y0135358D02*
X0085535Y0135358D01*
X0079630Y0135358D02*
X0069041Y0135358D01*
X0063135Y0135358D02*
X0052546Y0135358D01*
X0373412Y0375516D02*
X0379318Y0369610D01*
M02*
