G75*
%MOIN*%
%OFA0B0*%
%FSLAX25Y25*%
%IPPOS*%
%LPD*%
%AMOC8*
5,1,8,0,0,1.08239X$1,22.5*
%
%ADD10C,0.13800*%
%ADD11R,0.03300X0.05800*%
%ADD12C,0.08200*%
D10*
X0064514Y0124965D03*
X0144514Y0124965D03*
X0165519Y0124965D03*
X0245519Y0124965D03*
X0266524Y0124965D03*
X0346524Y0124965D03*
X0346524Y0225969D03*
X0266524Y0225969D03*
X0245519Y0225969D03*
X0165519Y0225969D03*
X0144514Y0225969D03*
X0064514Y0225969D03*
X0064514Y0326974D03*
X0144514Y0326974D03*
X0165519Y0326974D03*
X0245519Y0326974D03*
X0266524Y0326974D03*
X0346524Y0326974D03*
D11*
X0308296Y0264474D03*
X0304752Y0264474D03*
X0207291Y0264474D03*
X0203748Y0264474D03*
X0106286Y0264474D03*
X0102743Y0264474D03*
X0102743Y0163469D03*
X0106286Y0163469D03*
X0203748Y0163469D03*
X0207291Y0163469D03*
X0304752Y0163469D03*
X0308296Y0163469D03*
X0308296Y0062465D03*
X0304752Y0062465D03*
X0207291Y0062465D03*
X0203748Y0062465D03*
X0106286Y0062465D03*
X0102743Y0062465D03*
D12*
X0079514Y0039965D03*
X0089514Y0039965D03*
X0099514Y0039965D03*
X0109514Y0039965D03*
X0119514Y0039965D03*
X0129514Y0039965D03*
X0180519Y0039965D03*
X0190519Y0039965D03*
X0200519Y0039965D03*
X0210519Y0039965D03*
X0220519Y0039965D03*
X0230519Y0039965D03*
X0281524Y0039965D03*
X0291524Y0039965D03*
X0301524Y0039965D03*
X0311524Y0039965D03*
X0321524Y0039965D03*
X0331524Y0039965D03*
X0331524Y0140969D03*
X0321524Y0140969D03*
X0311524Y0140969D03*
X0301524Y0140969D03*
X0291524Y0140969D03*
X0281524Y0140969D03*
X0230519Y0140969D03*
X0220519Y0140969D03*
X0210519Y0140969D03*
X0200519Y0140969D03*
X0190519Y0140969D03*
X0180519Y0140969D03*
X0129514Y0140969D03*
X0119514Y0140969D03*
X0109514Y0140969D03*
X0099514Y0140969D03*
X0089514Y0140969D03*
X0079514Y0140969D03*
X0079514Y0241974D03*
X0089514Y0241974D03*
X0099514Y0241974D03*
X0109514Y0241974D03*
X0119514Y0241974D03*
X0129514Y0241974D03*
X0180519Y0241974D03*
X0190519Y0241974D03*
X0200519Y0241974D03*
X0210519Y0241974D03*
X0220519Y0241974D03*
X0230519Y0241974D03*
X0281524Y0241974D03*
X0291524Y0241974D03*
X0301524Y0241974D03*
X0311524Y0241974D03*
X0321524Y0241974D03*
X0331524Y0241974D03*
M02*
