G75*
%MOIN*%
%OFA0B0*%
%FSLAX25Y25*%
%IPPOS*%
%LPD*%
%AMOC8*
5,1,8,0,0,1.08239X$1,22.5*
%
%ADD10C,0.00800*%
%ADD11C,0.00000*%
D10*
X0054514Y0034965D02*
X0154514Y0034965D01*
X0154514Y0134965D01*
X0054514Y0134965D01*
X0054514Y0034965D01*
X0155519Y0034965D02*
X0255519Y0034965D01*
X0255519Y0134965D01*
X0155519Y0134965D01*
X0155519Y0034965D01*
X0256524Y0034965D02*
X0356524Y0034965D01*
X0356524Y0134965D01*
X0256524Y0134965D01*
X0256524Y0034965D01*
X0256524Y0135969D02*
X0356524Y0135969D01*
X0356524Y0235969D01*
X0256524Y0235969D01*
X0256524Y0135969D01*
X0255519Y0135969D02*
X0155519Y0135969D01*
X0155519Y0235969D01*
X0255519Y0235969D01*
X0255519Y0135969D01*
X0154514Y0135969D02*
X0054514Y0135969D01*
X0054514Y0235969D01*
X0154514Y0235969D01*
X0154514Y0135969D01*
X0154514Y0236974D02*
X0054514Y0236974D01*
X0054514Y0336974D01*
X0154514Y0336974D01*
X0154514Y0236974D01*
X0155519Y0236974D02*
X0255519Y0236974D01*
X0255519Y0336974D01*
X0155519Y0336974D01*
X0155519Y0236974D01*
X0256524Y0236974D02*
X0356524Y0236974D01*
X0356524Y0336974D01*
X0256524Y0336974D01*
X0256524Y0236974D01*
D11*
X0260024Y0225969D02*
X0260026Y0226130D01*
X0260032Y0226290D01*
X0260042Y0226451D01*
X0260056Y0226611D01*
X0260074Y0226771D01*
X0260095Y0226930D01*
X0260121Y0227089D01*
X0260151Y0227247D01*
X0260184Y0227404D01*
X0260222Y0227561D01*
X0260263Y0227716D01*
X0260308Y0227870D01*
X0260357Y0228023D01*
X0260410Y0228175D01*
X0260466Y0228326D01*
X0260527Y0228475D01*
X0260590Y0228623D01*
X0260658Y0228769D01*
X0260729Y0228913D01*
X0260803Y0229055D01*
X0260881Y0229196D01*
X0260963Y0229334D01*
X0261048Y0229471D01*
X0261136Y0229605D01*
X0261228Y0229737D01*
X0261323Y0229867D01*
X0261421Y0229995D01*
X0261522Y0230120D01*
X0261626Y0230242D01*
X0261733Y0230362D01*
X0261843Y0230479D01*
X0261956Y0230594D01*
X0262072Y0230705D01*
X0262191Y0230814D01*
X0262312Y0230919D01*
X0262436Y0231022D01*
X0262562Y0231122D01*
X0262690Y0231218D01*
X0262821Y0231311D01*
X0262955Y0231401D01*
X0263090Y0231488D01*
X0263228Y0231571D01*
X0263367Y0231651D01*
X0263509Y0231727D01*
X0263652Y0231800D01*
X0263797Y0231869D01*
X0263944Y0231935D01*
X0264092Y0231997D01*
X0264242Y0232055D01*
X0264393Y0232110D01*
X0264546Y0232161D01*
X0264700Y0232208D01*
X0264855Y0232251D01*
X0265011Y0232290D01*
X0265167Y0232326D01*
X0265325Y0232357D01*
X0265483Y0232385D01*
X0265642Y0232409D01*
X0265802Y0232429D01*
X0265962Y0232445D01*
X0266122Y0232457D01*
X0266283Y0232465D01*
X0266444Y0232469D01*
X0266604Y0232469D01*
X0266765Y0232465D01*
X0266926Y0232457D01*
X0267086Y0232445D01*
X0267246Y0232429D01*
X0267406Y0232409D01*
X0267565Y0232385D01*
X0267723Y0232357D01*
X0267881Y0232326D01*
X0268037Y0232290D01*
X0268193Y0232251D01*
X0268348Y0232208D01*
X0268502Y0232161D01*
X0268655Y0232110D01*
X0268806Y0232055D01*
X0268956Y0231997D01*
X0269104Y0231935D01*
X0269251Y0231869D01*
X0269396Y0231800D01*
X0269539Y0231727D01*
X0269681Y0231651D01*
X0269820Y0231571D01*
X0269958Y0231488D01*
X0270093Y0231401D01*
X0270227Y0231311D01*
X0270358Y0231218D01*
X0270486Y0231122D01*
X0270612Y0231022D01*
X0270736Y0230919D01*
X0270857Y0230814D01*
X0270976Y0230705D01*
X0271092Y0230594D01*
X0271205Y0230479D01*
X0271315Y0230362D01*
X0271422Y0230242D01*
X0271526Y0230120D01*
X0271627Y0229995D01*
X0271725Y0229867D01*
X0271820Y0229737D01*
X0271912Y0229605D01*
X0272000Y0229471D01*
X0272085Y0229334D01*
X0272167Y0229196D01*
X0272245Y0229055D01*
X0272319Y0228913D01*
X0272390Y0228769D01*
X0272458Y0228623D01*
X0272521Y0228475D01*
X0272582Y0228326D01*
X0272638Y0228175D01*
X0272691Y0228023D01*
X0272740Y0227870D01*
X0272785Y0227716D01*
X0272826Y0227561D01*
X0272864Y0227404D01*
X0272897Y0227247D01*
X0272927Y0227089D01*
X0272953Y0226930D01*
X0272974Y0226771D01*
X0272992Y0226611D01*
X0273006Y0226451D01*
X0273016Y0226290D01*
X0273022Y0226130D01*
X0273024Y0225969D01*
X0273022Y0225808D01*
X0273016Y0225648D01*
X0273006Y0225487D01*
X0272992Y0225327D01*
X0272974Y0225167D01*
X0272953Y0225008D01*
X0272927Y0224849D01*
X0272897Y0224691D01*
X0272864Y0224534D01*
X0272826Y0224377D01*
X0272785Y0224222D01*
X0272740Y0224068D01*
X0272691Y0223915D01*
X0272638Y0223763D01*
X0272582Y0223612D01*
X0272521Y0223463D01*
X0272458Y0223315D01*
X0272390Y0223169D01*
X0272319Y0223025D01*
X0272245Y0222883D01*
X0272167Y0222742D01*
X0272085Y0222604D01*
X0272000Y0222467D01*
X0271912Y0222333D01*
X0271820Y0222201D01*
X0271725Y0222071D01*
X0271627Y0221943D01*
X0271526Y0221818D01*
X0271422Y0221696D01*
X0271315Y0221576D01*
X0271205Y0221459D01*
X0271092Y0221344D01*
X0270976Y0221233D01*
X0270857Y0221124D01*
X0270736Y0221019D01*
X0270612Y0220916D01*
X0270486Y0220816D01*
X0270358Y0220720D01*
X0270227Y0220627D01*
X0270093Y0220537D01*
X0269958Y0220450D01*
X0269820Y0220367D01*
X0269681Y0220287D01*
X0269539Y0220211D01*
X0269396Y0220138D01*
X0269251Y0220069D01*
X0269104Y0220003D01*
X0268956Y0219941D01*
X0268806Y0219883D01*
X0268655Y0219828D01*
X0268502Y0219777D01*
X0268348Y0219730D01*
X0268193Y0219687D01*
X0268037Y0219648D01*
X0267881Y0219612D01*
X0267723Y0219581D01*
X0267565Y0219553D01*
X0267406Y0219529D01*
X0267246Y0219509D01*
X0267086Y0219493D01*
X0266926Y0219481D01*
X0266765Y0219473D01*
X0266604Y0219469D01*
X0266444Y0219469D01*
X0266283Y0219473D01*
X0266122Y0219481D01*
X0265962Y0219493D01*
X0265802Y0219509D01*
X0265642Y0219529D01*
X0265483Y0219553D01*
X0265325Y0219581D01*
X0265167Y0219612D01*
X0265011Y0219648D01*
X0264855Y0219687D01*
X0264700Y0219730D01*
X0264546Y0219777D01*
X0264393Y0219828D01*
X0264242Y0219883D01*
X0264092Y0219941D01*
X0263944Y0220003D01*
X0263797Y0220069D01*
X0263652Y0220138D01*
X0263509Y0220211D01*
X0263367Y0220287D01*
X0263228Y0220367D01*
X0263090Y0220450D01*
X0262955Y0220537D01*
X0262821Y0220627D01*
X0262690Y0220720D01*
X0262562Y0220816D01*
X0262436Y0220916D01*
X0262312Y0221019D01*
X0262191Y0221124D01*
X0262072Y0221233D01*
X0261956Y0221344D01*
X0261843Y0221459D01*
X0261733Y0221576D01*
X0261626Y0221696D01*
X0261522Y0221818D01*
X0261421Y0221943D01*
X0261323Y0222071D01*
X0261228Y0222201D01*
X0261136Y0222333D01*
X0261048Y0222467D01*
X0260963Y0222604D01*
X0260881Y0222742D01*
X0260803Y0222883D01*
X0260729Y0223025D01*
X0260658Y0223169D01*
X0260590Y0223315D01*
X0260527Y0223463D01*
X0260466Y0223612D01*
X0260410Y0223763D01*
X0260357Y0223915D01*
X0260308Y0224068D01*
X0260263Y0224222D01*
X0260222Y0224377D01*
X0260184Y0224534D01*
X0260151Y0224691D01*
X0260121Y0224849D01*
X0260095Y0225008D01*
X0260074Y0225167D01*
X0260056Y0225327D01*
X0260042Y0225487D01*
X0260032Y0225648D01*
X0260026Y0225808D01*
X0260024Y0225969D01*
X0239019Y0225969D02*
X0239021Y0226130D01*
X0239027Y0226290D01*
X0239037Y0226451D01*
X0239051Y0226611D01*
X0239069Y0226771D01*
X0239090Y0226930D01*
X0239116Y0227089D01*
X0239146Y0227247D01*
X0239179Y0227404D01*
X0239217Y0227561D01*
X0239258Y0227716D01*
X0239303Y0227870D01*
X0239352Y0228023D01*
X0239405Y0228175D01*
X0239461Y0228326D01*
X0239522Y0228475D01*
X0239585Y0228623D01*
X0239653Y0228769D01*
X0239724Y0228913D01*
X0239798Y0229055D01*
X0239876Y0229196D01*
X0239958Y0229334D01*
X0240043Y0229471D01*
X0240131Y0229605D01*
X0240223Y0229737D01*
X0240318Y0229867D01*
X0240416Y0229995D01*
X0240517Y0230120D01*
X0240621Y0230242D01*
X0240728Y0230362D01*
X0240838Y0230479D01*
X0240951Y0230594D01*
X0241067Y0230705D01*
X0241186Y0230814D01*
X0241307Y0230919D01*
X0241431Y0231022D01*
X0241557Y0231122D01*
X0241685Y0231218D01*
X0241816Y0231311D01*
X0241950Y0231401D01*
X0242085Y0231488D01*
X0242223Y0231571D01*
X0242362Y0231651D01*
X0242504Y0231727D01*
X0242647Y0231800D01*
X0242792Y0231869D01*
X0242939Y0231935D01*
X0243087Y0231997D01*
X0243237Y0232055D01*
X0243388Y0232110D01*
X0243541Y0232161D01*
X0243695Y0232208D01*
X0243850Y0232251D01*
X0244006Y0232290D01*
X0244162Y0232326D01*
X0244320Y0232357D01*
X0244478Y0232385D01*
X0244637Y0232409D01*
X0244797Y0232429D01*
X0244957Y0232445D01*
X0245117Y0232457D01*
X0245278Y0232465D01*
X0245439Y0232469D01*
X0245599Y0232469D01*
X0245760Y0232465D01*
X0245921Y0232457D01*
X0246081Y0232445D01*
X0246241Y0232429D01*
X0246401Y0232409D01*
X0246560Y0232385D01*
X0246718Y0232357D01*
X0246876Y0232326D01*
X0247032Y0232290D01*
X0247188Y0232251D01*
X0247343Y0232208D01*
X0247497Y0232161D01*
X0247650Y0232110D01*
X0247801Y0232055D01*
X0247951Y0231997D01*
X0248099Y0231935D01*
X0248246Y0231869D01*
X0248391Y0231800D01*
X0248534Y0231727D01*
X0248676Y0231651D01*
X0248815Y0231571D01*
X0248953Y0231488D01*
X0249088Y0231401D01*
X0249222Y0231311D01*
X0249353Y0231218D01*
X0249481Y0231122D01*
X0249607Y0231022D01*
X0249731Y0230919D01*
X0249852Y0230814D01*
X0249971Y0230705D01*
X0250087Y0230594D01*
X0250200Y0230479D01*
X0250310Y0230362D01*
X0250417Y0230242D01*
X0250521Y0230120D01*
X0250622Y0229995D01*
X0250720Y0229867D01*
X0250815Y0229737D01*
X0250907Y0229605D01*
X0250995Y0229471D01*
X0251080Y0229334D01*
X0251162Y0229196D01*
X0251240Y0229055D01*
X0251314Y0228913D01*
X0251385Y0228769D01*
X0251453Y0228623D01*
X0251516Y0228475D01*
X0251577Y0228326D01*
X0251633Y0228175D01*
X0251686Y0228023D01*
X0251735Y0227870D01*
X0251780Y0227716D01*
X0251821Y0227561D01*
X0251859Y0227404D01*
X0251892Y0227247D01*
X0251922Y0227089D01*
X0251948Y0226930D01*
X0251969Y0226771D01*
X0251987Y0226611D01*
X0252001Y0226451D01*
X0252011Y0226290D01*
X0252017Y0226130D01*
X0252019Y0225969D01*
X0252017Y0225808D01*
X0252011Y0225648D01*
X0252001Y0225487D01*
X0251987Y0225327D01*
X0251969Y0225167D01*
X0251948Y0225008D01*
X0251922Y0224849D01*
X0251892Y0224691D01*
X0251859Y0224534D01*
X0251821Y0224377D01*
X0251780Y0224222D01*
X0251735Y0224068D01*
X0251686Y0223915D01*
X0251633Y0223763D01*
X0251577Y0223612D01*
X0251516Y0223463D01*
X0251453Y0223315D01*
X0251385Y0223169D01*
X0251314Y0223025D01*
X0251240Y0222883D01*
X0251162Y0222742D01*
X0251080Y0222604D01*
X0250995Y0222467D01*
X0250907Y0222333D01*
X0250815Y0222201D01*
X0250720Y0222071D01*
X0250622Y0221943D01*
X0250521Y0221818D01*
X0250417Y0221696D01*
X0250310Y0221576D01*
X0250200Y0221459D01*
X0250087Y0221344D01*
X0249971Y0221233D01*
X0249852Y0221124D01*
X0249731Y0221019D01*
X0249607Y0220916D01*
X0249481Y0220816D01*
X0249353Y0220720D01*
X0249222Y0220627D01*
X0249088Y0220537D01*
X0248953Y0220450D01*
X0248815Y0220367D01*
X0248676Y0220287D01*
X0248534Y0220211D01*
X0248391Y0220138D01*
X0248246Y0220069D01*
X0248099Y0220003D01*
X0247951Y0219941D01*
X0247801Y0219883D01*
X0247650Y0219828D01*
X0247497Y0219777D01*
X0247343Y0219730D01*
X0247188Y0219687D01*
X0247032Y0219648D01*
X0246876Y0219612D01*
X0246718Y0219581D01*
X0246560Y0219553D01*
X0246401Y0219529D01*
X0246241Y0219509D01*
X0246081Y0219493D01*
X0245921Y0219481D01*
X0245760Y0219473D01*
X0245599Y0219469D01*
X0245439Y0219469D01*
X0245278Y0219473D01*
X0245117Y0219481D01*
X0244957Y0219493D01*
X0244797Y0219509D01*
X0244637Y0219529D01*
X0244478Y0219553D01*
X0244320Y0219581D01*
X0244162Y0219612D01*
X0244006Y0219648D01*
X0243850Y0219687D01*
X0243695Y0219730D01*
X0243541Y0219777D01*
X0243388Y0219828D01*
X0243237Y0219883D01*
X0243087Y0219941D01*
X0242939Y0220003D01*
X0242792Y0220069D01*
X0242647Y0220138D01*
X0242504Y0220211D01*
X0242362Y0220287D01*
X0242223Y0220367D01*
X0242085Y0220450D01*
X0241950Y0220537D01*
X0241816Y0220627D01*
X0241685Y0220720D01*
X0241557Y0220816D01*
X0241431Y0220916D01*
X0241307Y0221019D01*
X0241186Y0221124D01*
X0241067Y0221233D01*
X0240951Y0221344D01*
X0240838Y0221459D01*
X0240728Y0221576D01*
X0240621Y0221696D01*
X0240517Y0221818D01*
X0240416Y0221943D01*
X0240318Y0222071D01*
X0240223Y0222201D01*
X0240131Y0222333D01*
X0240043Y0222467D01*
X0239958Y0222604D01*
X0239876Y0222742D01*
X0239798Y0222883D01*
X0239724Y0223025D01*
X0239653Y0223169D01*
X0239585Y0223315D01*
X0239522Y0223463D01*
X0239461Y0223612D01*
X0239405Y0223763D01*
X0239352Y0223915D01*
X0239303Y0224068D01*
X0239258Y0224222D01*
X0239217Y0224377D01*
X0239179Y0224534D01*
X0239146Y0224691D01*
X0239116Y0224849D01*
X0239090Y0225008D01*
X0239069Y0225167D01*
X0239051Y0225327D01*
X0239037Y0225487D01*
X0239027Y0225648D01*
X0239021Y0225808D01*
X0239019Y0225969D01*
X0159019Y0225969D02*
X0159021Y0226130D01*
X0159027Y0226290D01*
X0159037Y0226451D01*
X0159051Y0226611D01*
X0159069Y0226771D01*
X0159090Y0226930D01*
X0159116Y0227089D01*
X0159146Y0227247D01*
X0159179Y0227404D01*
X0159217Y0227561D01*
X0159258Y0227716D01*
X0159303Y0227870D01*
X0159352Y0228023D01*
X0159405Y0228175D01*
X0159461Y0228326D01*
X0159522Y0228475D01*
X0159585Y0228623D01*
X0159653Y0228769D01*
X0159724Y0228913D01*
X0159798Y0229055D01*
X0159876Y0229196D01*
X0159958Y0229334D01*
X0160043Y0229471D01*
X0160131Y0229605D01*
X0160223Y0229737D01*
X0160318Y0229867D01*
X0160416Y0229995D01*
X0160517Y0230120D01*
X0160621Y0230242D01*
X0160728Y0230362D01*
X0160838Y0230479D01*
X0160951Y0230594D01*
X0161067Y0230705D01*
X0161186Y0230814D01*
X0161307Y0230919D01*
X0161431Y0231022D01*
X0161557Y0231122D01*
X0161685Y0231218D01*
X0161816Y0231311D01*
X0161950Y0231401D01*
X0162085Y0231488D01*
X0162223Y0231571D01*
X0162362Y0231651D01*
X0162504Y0231727D01*
X0162647Y0231800D01*
X0162792Y0231869D01*
X0162939Y0231935D01*
X0163087Y0231997D01*
X0163237Y0232055D01*
X0163388Y0232110D01*
X0163541Y0232161D01*
X0163695Y0232208D01*
X0163850Y0232251D01*
X0164006Y0232290D01*
X0164162Y0232326D01*
X0164320Y0232357D01*
X0164478Y0232385D01*
X0164637Y0232409D01*
X0164797Y0232429D01*
X0164957Y0232445D01*
X0165117Y0232457D01*
X0165278Y0232465D01*
X0165439Y0232469D01*
X0165599Y0232469D01*
X0165760Y0232465D01*
X0165921Y0232457D01*
X0166081Y0232445D01*
X0166241Y0232429D01*
X0166401Y0232409D01*
X0166560Y0232385D01*
X0166718Y0232357D01*
X0166876Y0232326D01*
X0167032Y0232290D01*
X0167188Y0232251D01*
X0167343Y0232208D01*
X0167497Y0232161D01*
X0167650Y0232110D01*
X0167801Y0232055D01*
X0167951Y0231997D01*
X0168099Y0231935D01*
X0168246Y0231869D01*
X0168391Y0231800D01*
X0168534Y0231727D01*
X0168676Y0231651D01*
X0168815Y0231571D01*
X0168953Y0231488D01*
X0169088Y0231401D01*
X0169222Y0231311D01*
X0169353Y0231218D01*
X0169481Y0231122D01*
X0169607Y0231022D01*
X0169731Y0230919D01*
X0169852Y0230814D01*
X0169971Y0230705D01*
X0170087Y0230594D01*
X0170200Y0230479D01*
X0170310Y0230362D01*
X0170417Y0230242D01*
X0170521Y0230120D01*
X0170622Y0229995D01*
X0170720Y0229867D01*
X0170815Y0229737D01*
X0170907Y0229605D01*
X0170995Y0229471D01*
X0171080Y0229334D01*
X0171162Y0229196D01*
X0171240Y0229055D01*
X0171314Y0228913D01*
X0171385Y0228769D01*
X0171453Y0228623D01*
X0171516Y0228475D01*
X0171577Y0228326D01*
X0171633Y0228175D01*
X0171686Y0228023D01*
X0171735Y0227870D01*
X0171780Y0227716D01*
X0171821Y0227561D01*
X0171859Y0227404D01*
X0171892Y0227247D01*
X0171922Y0227089D01*
X0171948Y0226930D01*
X0171969Y0226771D01*
X0171987Y0226611D01*
X0172001Y0226451D01*
X0172011Y0226290D01*
X0172017Y0226130D01*
X0172019Y0225969D01*
X0172017Y0225808D01*
X0172011Y0225648D01*
X0172001Y0225487D01*
X0171987Y0225327D01*
X0171969Y0225167D01*
X0171948Y0225008D01*
X0171922Y0224849D01*
X0171892Y0224691D01*
X0171859Y0224534D01*
X0171821Y0224377D01*
X0171780Y0224222D01*
X0171735Y0224068D01*
X0171686Y0223915D01*
X0171633Y0223763D01*
X0171577Y0223612D01*
X0171516Y0223463D01*
X0171453Y0223315D01*
X0171385Y0223169D01*
X0171314Y0223025D01*
X0171240Y0222883D01*
X0171162Y0222742D01*
X0171080Y0222604D01*
X0170995Y0222467D01*
X0170907Y0222333D01*
X0170815Y0222201D01*
X0170720Y0222071D01*
X0170622Y0221943D01*
X0170521Y0221818D01*
X0170417Y0221696D01*
X0170310Y0221576D01*
X0170200Y0221459D01*
X0170087Y0221344D01*
X0169971Y0221233D01*
X0169852Y0221124D01*
X0169731Y0221019D01*
X0169607Y0220916D01*
X0169481Y0220816D01*
X0169353Y0220720D01*
X0169222Y0220627D01*
X0169088Y0220537D01*
X0168953Y0220450D01*
X0168815Y0220367D01*
X0168676Y0220287D01*
X0168534Y0220211D01*
X0168391Y0220138D01*
X0168246Y0220069D01*
X0168099Y0220003D01*
X0167951Y0219941D01*
X0167801Y0219883D01*
X0167650Y0219828D01*
X0167497Y0219777D01*
X0167343Y0219730D01*
X0167188Y0219687D01*
X0167032Y0219648D01*
X0166876Y0219612D01*
X0166718Y0219581D01*
X0166560Y0219553D01*
X0166401Y0219529D01*
X0166241Y0219509D01*
X0166081Y0219493D01*
X0165921Y0219481D01*
X0165760Y0219473D01*
X0165599Y0219469D01*
X0165439Y0219469D01*
X0165278Y0219473D01*
X0165117Y0219481D01*
X0164957Y0219493D01*
X0164797Y0219509D01*
X0164637Y0219529D01*
X0164478Y0219553D01*
X0164320Y0219581D01*
X0164162Y0219612D01*
X0164006Y0219648D01*
X0163850Y0219687D01*
X0163695Y0219730D01*
X0163541Y0219777D01*
X0163388Y0219828D01*
X0163237Y0219883D01*
X0163087Y0219941D01*
X0162939Y0220003D01*
X0162792Y0220069D01*
X0162647Y0220138D01*
X0162504Y0220211D01*
X0162362Y0220287D01*
X0162223Y0220367D01*
X0162085Y0220450D01*
X0161950Y0220537D01*
X0161816Y0220627D01*
X0161685Y0220720D01*
X0161557Y0220816D01*
X0161431Y0220916D01*
X0161307Y0221019D01*
X0161186Y0221124D01*
X0161067Y0221233D01*
X0160951Y0221344D01*
X0160838Y0221459D01*
X0160728Y0221576D01*
X0160621Y0221696D01*
X0160517Y0221818D01*
X0160416Y0221943D01*
X0160318Y0222071D01*
X0160223Y0222201D01*
X0160131Y0222333D01*
X0160043Y0222467D01*
X0159958Y0222604D01*
X0159876Y0222742D01*
X0159798Y0222883D01*
X0159724Y0223025D01*
X0159653Y0223169D01*
X0159585Y0223315D01*
X0159522Y0223463D01*
X0159461Y0223612D01*
X0159405Y0223763D01*
X0159352Y0223915D01*
X0159303Y0224068D01*
X0159258Y0224222D01*
X0159217Y0224377D01*
X0159179Y0224534D01*
X0159146Y0224691D01*
X0159116Y0224849D01*
X0159090Y0225008D01*
X0159069Y0225167D01*
X0159051Y0225327D01*
X0159037Y0225487D01*
X0159027Y0225648D01*
X0159021Y0225808D01*
X0159019Y0225969D01*
X0138014Y0225969D02*
X0138016Y0226130D01*
X0138022Y0226290D01*
X0138032Y0226451D01*
X0138046Y0226611D01*
X0138064Y0226771D01*
X0138085Y0226930D01*
X0138111Y0227089D01*
X0138141Y0227247D01*
X0138174Y0227404D01*
X0138212Y0227561D01*
X0138253Y0227716D01*
X0138298Y0227870D01*
X0138347Y0228023D01*
X0138400Y0228175D01*
X0138456Y0228326D01*
X0138517Y0228475D01*
X0138580Y0228623D01*
X0138648Y0228769D01*
X0138719Y0228913D01*
X0138793Y0229055D01*
X0138871Y0229196D01*
X0138953Y0229334D01*
X0139038Y0229471D01*
X0139126Y0229605D01*
X0139218Y0229737D01*
X0139313Y0229867D01*
X0139411Y0229995D01*
X0139512Y0230120D01*
X0139616Y0230242D01*
X0139723Y0230362D01*
X0139833Y0230479D01*
X0139946Y0230594D01*
X0140062Y0230705D01*
X0140181Y0230814D01*
X0140302Y0230919D01*
X0140426Y0231022D01*
X0140552Y0231122D01*
X0140680Y0231218D01*
X0140811Y0231311D01*
X0140945Y0231401D01*
X0141080Y0231488D01*
X0141218Y0231571D01*
X0141357Y0231651D01*
X0141499Y0231727D01*
X0141642Y0231800D01*
X0141787Y0231869D01*
X0141934Y0231935D01*
X0142082Y0231997D01*
X0142232Y0232055D01*
X0142383Y0232110D01*
X0142536Y0232161D01*
X0142690Y0232208D01*
X0142845Y0232251D01*
X0143001Y0232290D01*
X0143157Y0232326D01*
X0143315Y0232357D01*
X0143473Y0232385D01*
X0143632Y0232409D01*
X0143792Y0232429D01*
X0143952Y0232445D01*
X0144112Y0232457D01*
X0144273Y0232465D01*
X0144434Y0232469D01*
X0144594Y0232469D01*
X0144755Y0232465D01*
X0144916Y0232457D01*
X0145076Y0232445D01*
X0145236Y0232429D01*
X0145396Y0232409D01*
X0145555Y0232385D01*
X0145713Y0232357D01*
X0145871Y0232326D01*
X0146027Y0232290D01*
X0146183Y0232251D01*
X0146338Y0232208D01*
X0146492Y0232161D01*
X0146645Y0232110D01*
X0146796Y0232055D01*
X0146946Y0231997D01*
X0147094Y0231935D01*
X0147241Y0231869D01*
X0147386Y0231800D01*
X0147529Y0231727D01*
X0147671Y0231651D01*
X0147810Y0231571D01*
X0147948Y0231488D01*
X0148083Y0231401D01*
X0148217Y0231311D01*
X0148348Y0231218D01*
X0148476Y0231122D01*
X0148602Y0231022D01*
X0148726Y0230919D01*
X0148847Y0230814D01*
X0148966Y0230705D01*
X0149082Y0230594D01*
X0149195Y0230479D01*
X0149305Y0230362D01*
X0149412Y0230242D01*
X0149516Y0230120D01*
X0149617Y0229995D01*
X0149715Y0229867D01*
X0149810Y0229737D01*
X0149902Y0229605D01*
X0149990Y0229471D01*
X0150075Y0229334D01*
X0150157Y0229196D01*
X0150235Y0229055D01*
X0150309Y0228913D01*
X0150380Y0228769D01*
X0150448Y0228623D01*
X0150511Y0228475D01*
X0150572Y0228326D01*
X0150628Y0228175D01*
X0150681Y0228023D01*
X0150730Y0227870D01*
X0150775Y0227716D01*
X0150816Y0227561D01*
X0150854Y0227404D01*
X0150887Y0227247D01*
X0150917Y0227089D01*
X0150943Y0226930D01*
X0150964Y0226771D01*
X0150982Y0226611D01*
X0150996Y0226451D01*
X0151006Y0226290D01*
X0151012Y0226130D01*
X0151014Y0225969D01*
X0151012Y0225808D01*
X0151006Y0225648D01*
X0150996Y0225487D01*
X0150982Y0225327D01*
X0150964Y0225167D01*
X0150943Y0225008D01*
X0150917Y0224849D01*
X0150887Y0224691D01*
X0150854Y0224534D01*
X0150816Y0224377D01*
X0150775Y0224222D01*
X0150730Y0224068D01*
X0150681Y0223915D01*
X0150628Y0223763D01*
X0150572Y0223612D01*
X0150511Y0223463D01*
X0150448Y0223315D01*
X0150380Y0223169D01*
X0150309Y0223025D01*
X0150235Y0222883D01*
X0150157Y0222742D01*
X0150075Y0222604D01*
X0149990Y0222467D01*
X0149902Y0222333D01*
X0149810Y0222201D01*
X0149715Y0222071D01*
X0149617Y0221943D01*
X0149516Y0221818D01*
X0149412Y0221696D01*
X0149305Y0221576D01*
X0149195Y0221459D01*
X0149082Y0221344D01*
X0148966Y0221233D01*
X0148847Y0221124D01*
X0148726Y0221019D01*
X0148602Y0220916D01*
X0148476Y0220816D01*
X0148348Y0220720D01*
X0148217Y0220627D01*
X0148083Y0220537D01*
X0147948Y0220450D01*
X0147810Y0220367D01*
X0147671Y0220287D01*
X0147529Y0220211D01*
X0147386Y0220138D01*
X0147241Y0220069D01*
X0147094Y0220003D01*
X0146946Y0219941D01*
X0146796Y0219883D01*
X0146645Y0219828D01*
X0146492Y0219777D01*
X0146338Y0219730D01*
X0146183Y0219687D01*
X0146027Y0219648D01*
X0145871Y0219612D01*
X0145713Y0219581D01*
X0145555Y0219553D01*
X0145396Y0219529D01*
X0145236Y0219509D01*
X0145076Y0219493D01*
X0144916Y0219481D01*
X0144755Y0219473D01*
X0144594Y0219469D01*
X0144434Y0219469D01*
X0144273Y0219473D01*
X0144112Y0219481D01*
X0143952Y0219493D01*
X0143792Y0219509D01*
X0143632Y0219529D01*
X0143473Y0219553D01*
X0143315Y0219581D01*
X0143157Y0219612D01*
X0143001Y0219648D01*
X0142845Y0219687D01*
X0142690Y0219730D01*
X0142536Y0219777D01*
X0142383Y0219828D01*
X0142232Y0219883D01*
X0142082Y0219941D01*
X0141934Y0220003D01*
X0141787Y0220069D01*
X0141642Y0220138D01*
X0141499Y0220211D01*
X0141357Y0220287D01*
X0141218Y0220367D01*
X0141080Y0220450D01*
X0140945Y0220537D01*
X0140811Y0220627D01*
X0140680Y0220720D01*
X0140552Y0220816D01*
X0140426Y0220916D01*
X0140302Y0221019D01*
X0140181Y0221124D01*
X0140062Y0221233D01*
X0139946Y0221344D01*
X0139833Y0221459D01*
X0139723Y0221576D01*
X0139616Y0221696D01*
X0139512Y0221818D01*
X0139411Y0221943D01*
X0139313Y0222071D01*
X0139218Y0222201D01*
X0139126Y0222333D01*
X0139038Y0222467D01*
X0138953Y0222604D01*
X0138871Y0222742D01*
X0138793Y0222883D01*
X0138719Y0223025D01*
X0138648Y0223169D01*
X0138580Y0223315D01*
X0138517Y0223463D01*
X0138456Y0223612D01*
X0138400Y0223763D01*
X0138347Y0223915D01*
X0138298Y0224068D01*
X0138253Y0224222D01*
X0138212Y0224377D01*
X0138174Y0224534D01*
X0138141Y0224691D01*
X0138111Y0224849D01*
X0138085Y0225008D01*
X0138064Y0225167D01*
X0138046Y0225327D01*
X0138032Y0225487D01*
X0138022Y0225648D01*
X0138016Y0225808D01*
X0138014Y0225969D01*
X0058014Y0225969D02*
X0058016Y0226130D01*
X0058022Y0226290D01*
X0058032Y0226451D01*
X0058046Y0226611D01*
X0058064Y0226771D01*
X0058085Y0226930D01*
X0058111Y0227089D01*
X0058141Y0227247D01*
X0058174Y0227404D01*
X0058212Y0227561D01*
X0058253Y0227716D01*
X0058298Y0227870D01*
X0058347Y0228023D01*
X0058400Y0228175D01*
X0058456Y0228326D01*
X0058517Y0228475D01*
X0058580Y0228623D01*
X0058648Y0228769D01*
X0058719Y0228913D01*
X0058793Y0229055D01*
X0058871Y0229196D01*
X0058953Y0229334D01*
X0059038Y0229471D01*
X0059126Y0229605D01*
X0059218Y0229737D01*
X0059313Y0229867D01*
X0059411Y0229995D01*
X0059512Y0230120D01*
X0059616Y0230242D01*
X0059723Y0230362D01*
X0059833Y0230479D01*
X0059946Y0230594D01*
X0060062Y0230705D01*
X0060181Y0230814D01*
X0060302Y0230919D01*
X0060426Y0231022D01*
X0060552Y0231122D01*
X0060680Y0231218D01*
X0060811Y0231311D01*
X0060945Y0231401D01*
X0061080Y0231488D01*
X0061218Y0231571D01*
X0061357Y0231651D01*
X0061499Y0231727D01*
X0061642Y0231800D01*
X0061787Y0231869D01*
X0061934Y0231935D01*
X0062082Y0231997D01*
X0062232Y0232055D01*
X0062383Y0232110D01*
X0062536Y0232161D01*
X0062690Y0232208D01*
X0062845Y0232251D01*
X0063001Y0232290D01*
X0063157Y0232326D01*
X0063315Y0232357D01*
X0063473Y0232385D01*
X0063632Y0232409D01*
X0063792Y0232429D01*
X0063952Y0232445D01*
X0064112Y0232457D01*
X0064273Y0232465D01*
X0064434Y0232469D01*
X0064594Y0232469D01*
X0064755Y0232465D01*
X0064916Y0232457D01*
X0065076Y0232445D01*
X0065236Y0232429D01*
X0065396Y0232409D01*
X0065555Y0232385D01*
X0065713Y0232357D01*
X0065871Y0232326D01*
X0066027Y0232290D01*
X0066183Y0232251D01*
X0066338Y0232208D01*
X0066492Y0232161D01*
X0066645Y0232110D01*
X0066796Y0232055D01*
X0066946Y0231997D01*
X0067094Y0231935D01*
X0067241Y0231869D01*
X0067386Y0231800D01*
X0067529Y0231727D01*
X0067671Y0231651D01*
X0067810Y0231571D01*
X0067948Y0231488D01*
X0068083Y0231401D01*
X0068217Y0231311D01*
X0068348Y0231218D01*
X0068476Y0231122D01*
X0068602Y0231022D01*
X0068726Y0230919D01*
X0068847Y0230814D01*
X0068966Y0230705D01*
X0069082Y0230594D01*
X0069195Y0230479D01*
X0069305Y0230362D01*
X0069412Y0230242D01*
X0069516Y0230120D01*
X0069617Y0229995D01*
X0069715Y0229867D01*
X0069810Y0229737D01*
X0069902Y0229605D01*
X0069990Y0229471D01*
X0070075Y0229334D01*
X0070157Y0229196D01*
X0070235Y0229055D01*
X0070309Y0228913D01*
X0070380Y0228769D01*
X0070448Y0228623D01*
X0070511Y0228475D01*
X0070572Y0228326D01*
X0070628Y0228175D01*
X0070681Y0228023D01*
X0070730Y0227870D01*
X0070775Y0227716D01*
X0070816Y0227561D01*
X0070854Y0227404D01*
X0070887Y0227247D01*
X0070917Y0227089D01*
X0070943Y0226930D01*
X0070964Y0226771D01*
X0070982Y0226611D01*
X0070996Y0226451D01*
X0071006Y0226290D01*
X0071012Y0226130D01*
X0071014Y0225969D01*
X0071012Y0225808D01*
X0071006Y0225648D01*
X0070996Y0225487D01*
X0070982Y0225327D01*
X0070964Y0225167D01*
X0070943Y0225008D01*
X0070917Y0224849D01*
X0070887Y0224691D01*
X0070854Y0224534D01*
X0070816Y0224377D01*
X0070775Y0224222D01*
X0070730Y0224068D01*
X0070681Y0223915D01*
X0070628Y0223763D01*
X0070572Y0223612D01*
X0070511Y0223463D01*
X0070448Y0223315D01*
X0070380Y0223169D01*
X0070309Y0223025D01*
X0070235Y0222883D01*
X0070157Y0222742D01*
X0070075Y0222604D01*
X0069990Y0222467D01*
X0069902Y0222333D01*
X0069810Y0222201D01*
X0069715Y0222071D01*
X0069617Y0221943D01*
X0069516Y0221818D01*
X0069412Y0221696D01*
X0069305Y0221576D01*
X0069195Y0221459D01*
X0069082Y0221344D01*
X0068966Y0221233D01*
X0068847Y0221124D01*
X0068726Y0221019D01*
X0068602Y0220916D01*
X0068476Y0220816D01*
X0068348Y0220720D01*
X0068217Y0220627D01*
X0068083Y0220537D01*
X0067948Y0220450D01*
X0067810Y0220367D01*
X0067671Y0220287D01*
X0067529Y0220211D01*
X0067386Y0220138D01*
X0067241Y0220069D01*
X0067094Y0220003D01*
X0066946Y0219941D01*
X0066796Y0219883D01*
X0066645Y0219828D01*
X0066492Y0219777D01*
X0066338Y0219730D01*
X0066183Y0219687D01*
X0066027Y0219648D01*
X0065871Y0219612D01*
X0065713Y0219581D01*
X0065555Y0219553D01*
X0065396Y0219529D01*
X0065236Y0219509D01*
X0065076Y0219493D01*
X0064916Y0219481D01*
X0064755Y0219473D01*
X0064594Y0219469D01*
X0064434Y0219469D01*
X0064273Y0219473D01*
X0064112Y0219481D01*
X0063952Y0219493D01*
X0063792Y0219509D01*
X0063632Y0219529D01*
X0063473Y0219553D01*
X0063315Y0219581D01*
X0063157Y0219612D01*
X0063001Y0219648D01*
X0062845Y0219687D01*
X0062690Y0219730D01*
X0062536Y0219777D01*
X0062383Y0219828D01*
X0062232Y0219883D01*
X0062082Y0219941D01*
X0061934Y0220003D01*
X0061787Y0220069D01*
X0061642Y0220138D01*
X0061499Y0220211D01*
X0061357Y0220287D01*
X0061218Y0220367D01*
X0061080Y0220450D01*
X0060945Y0220537D01*
X0060811Y0220627D01*
X0060680Y0220720D01*
X0060552Y0220816D01*
X0060426Y0220916D01*
X0060302Y0221019D01*
X0060181Y0221124D01*
X0060062Y0221233D01*
X0059946Y0221344D01*
X0059833Y0221459D01*
X0059723Y0221576D01*
X0059616Y0221696D01*
X0059512Y0221818D01*
X0059411Y0221943D01*
X0059313Y0222071D01*
X0059218Y0222201D01*
X0059126Y0222333D01*
X0059038Y0222467D01*
X0058953Y0222604D01*
X0058871Y0222742D01*
X0058793Y0222883D01*
X0058719Y0223025D01*
X0058648Y0223169D01*
X0058580Y0223315D01*
X0058517Y0223463D01*
X0058456Y0223612D01*
X0058400Y0223763D01*
X0058347Y0223915D01*
X0058298Y0224068D01*
X0058253Y0224222D01*
X0058212Y0224377D01*
X0058174Y0224534D01*
X0058141Y0224691D01*
X0058111Y0224849D01*
X0058085Y0225008D01*
X0058064Y0225167D01*
X0058046Y0225327D01*
X0058032Y0225487D01*
X0058022Y0225648D01*
X0058016Y0225808D01*
X0058014Y0225969D01*
X0058014Y0124965D02*
X0058016Y0125126D01*
X0058022Y0125286D01*
X0058032Y0125447D01*
X0058046Y0125607D01*
X0058064Y0125767D01*
X0058085Y0125926D01*
X0058111Y0126085D01*
X0058141Y0126243D01*
X0058174Y0126400D01*
X0058212Y0126557D01*
X0058253Y0126712D01*
X0058298Y0126866D01*
X0058347Y0127019D01*
X0058400Y0127171D01*
X0058456Y0127322D01*
X0058517Y0127471D01*
X0058580Y0127619D01*
X0058648Y0127765D01*
X0058719Y0127909D01*
X0058793Y0128051D01*
X0058871Y0128192D01*
X0058953Y0128330D01*
X0059038Y0128467D01*
X0059126Y0128601D01*
X0059218Y0128733D01*
X0059313Y0128863D01*
X0059411Y0128991D01*
X0059512Y0129116D01*
X0059616Y0129238D01*
X0059723Y0129358D01*
X0059833Y0129475D01*
X0059946Y0129590D01*
X0060062Y0129701D01*
X0060181Y0129810D01*
X0060302Y0129915D01*
X0060426Y0130018D01*
X0060552Y0130118D01*
X0060680Y0130214D01*
X0060811Y0130307D01*
X0060945Y0130397D01*
X0061080Y0130484D01*
X0061218Y0130567D01*
X0061357Y0130647D01*
X0061499Y0130723D01*
X0061642Y0130796D01*
X0061787Y0130865D01*
X0061934Y0130931D01*
X0062082Y0130993D01*
X0062232Y0131051D01*
X0062383Y0131106D01*
X0062536Y0131157D01*
X0062690Y0131204D01*
X0062845Y0131247D01*
X0063001Y0131286D01*
X0063157Y0131322D01*
X0063315Y0131353D01*
X0063473Y0131381D01*
X0063632Y0131405D01*
X0063792Y0131425D01*
X0063952Y0131441D01*
X0064112Y0131453D01*
X0064273Y0131461D01*
X0064434Y0131465D01*
X0064594Y0131465D01*
X0064755Y0131461D01*
X0064916Y0131453D01*
X0065076Y0131441D01*
X0065236Y0131425D01*
X0065396Y0131405D01*
X0065555Y0131381D01*
X0065713Y0131353D01*
X0065871Y0131322D01*
X0066027Y0131286D01*
X0066183Y0131247D01*
X0066338Y0131204D01*
X0066492Y0131157D01*
X0066645Y0131106D01*
X0066796Y0131051D01*
X0066946Y0130993D01*
X0067094Y0130931D01*
X0067241Y0130865D01*
X0067386Y0130796D01*
X0067529Y0130723D01*
X0067671Y0130647D01*
X0067810Y0130567D01*
X0067948Y0130484D01*
X0068083Y0130397D01*
X0068217Y0130307D01*
X0068348Y0130214D01*
X0068476Y0130118D01*
X0068602Y0130018D01*
X0068726Y0129915D01*
X0068847Y0129810D01*
X0068966Y0129701D01*
X0069082Y0129590D01*
X0069195Y0129475D01*
X0069305Y0129358D01*
X0069412Y0129238D01*
X0069516Y0129116D01*
X0069617Y0128991D01*
X0069715Y0128863D01*
X0069810Y0128733D01*
X0069902Y0128601D01*
X0069990Y0128467D01*
X0070075Y0128330D01*
X0070157Y0128192D01*
X0070235Y0128051D01*
X0070309Y0127909D01*
X0070380Y0127765D01*
X0070448Y0127619D01*
X0070511Y0127471D01*
X0070572Y0127322D01*
X0070628Y0127171D01*
X0070681Y0127019D01*
X0070730Y0126866D01*
X0070775Y0126712D01*
X0070816Y0126557D01*
X0070854Y0126400D01*
X0070887Y0126243D01*
X0070917Y0126085D01*
X0070943Y0125926D01*
X0070964Y0125767D01*
X0070982Y0125607D01*
X0070996Y0125447D01*
X0071006Y0125286D01*
X0071012Y0125126D01*
X0071014Y0124965D01*
X0071012Y0124804D01*
X0071006Y0124644D01*
X0070996Y0124483D01*
X0070982Y0124323D01*
X0070964Y0124163D01*
X0070943Y0124004D01*
X0070917Y0123845D01*
X0070887Y0123687D01*
X0070854Y0123530D01*
X0070816Y0123373D01*
X0070775Y0123218D01*
X0070730Y0123064D01*
X0070681Y0122911D01*
X0070628Y0122759D01*
X0070572Y0122608D01*
X0070511Y0122459D01*
X0070448Y0122311D01*
X0070380Y0122165D01*
X0070309Y0122021D01*
X0070235Y0121879D01*
X0070157Y0121738D01*
X0070075Y0121600D01*
X0069990Y0121463D01*
X0069902Y0121329D01*
X0069810Y0121197D01*
X0069715Y0121067D01*
X0069617Y0120939D01*
X0069516Y0120814D01*
X0069412Y0120692D01*
X0069305Y0120572D01*
X0069195Y0120455D01*
X0069082Y0120340D01*
X0068966Y0120229D01*
X0068847Y0120120D01*
X0068726Y0120015D01*
X0068602Y0119912D01*
X0068476Y0119812D01*
X0068348Y0119716D01*
X0068217Y0119623D01*
X0068083Y0119533D01*
X0067948Y0119446D01*
X0067810Y0119363D01*
X0067671Y0119283D01*
X0067529Y0119207D01*
X0067386Y0119134D01*
X0067241Y0119065D01*
X0067094Y0118999D01*
X0066946Y0118937D01*
X0066796Y0118879D01*
X0066645Y0118824D01*
X0066492Y0118773D01*
X0066338Y0118726D01*
X0066183Y0118683D01*
X0066027Y0118644D01*
X0065871Y0118608D01*
X0065713Y0118577D01*
X0065555Y0118549D01*
X0065396Y0118525D01*
X0065236Y0118505D01*
X0065076Y0118489D01*
X0064916Y0118477D01*
X0064755Y0118469D01*
X0064594Y0118465D01*
X0064434Y0118465D01*
X0064273Y0118469D01*
X0064112Y0118477D01*
X0063952Y0118489D01*
X0063792Y0118505D01*
X0063632Y0118525D01*
X0063473Y0118549D01*
X0063315Y0118577D01*
X0063157Y0118608D01*
X0063001Y0118644D01*
X0062845Y0118683D01*
X0062690Y0118726D01*
X0062536Y0118773D01*
X0062383Y0118824D01*
X0062232Y0118879D01*
X0062082Y0118937D01*
X0061934Y0118999D01*
X0061787Y0119065D01*
X0061642Y0119134D01*
X0061499Y0119207D01*
X0061357Y0119283D01*
X0061218Y0119363D01*
X0061080Y0119446D01*
X0060945Y0119533D01*
X0060811Y0119623D01*
X0060680Y0119716D01*
X0060552Y0119812D01*
X0060426Y0119912D01*
X0060302Y0120015D01*
X0060181Y0120120D01*
X0060062Y0120229D01*
X0059946Y0120340D01*
X0059833Y0120455D01*
X0059723Y0120572D01*
X0059616Y0120692D01*
X0059512Y0120814D01*
X0059411Y0120939D01*
X0059313Y0121067D01*
X0059218Y0121197D01*
X0059126Y0121329D01*
X0059038Y0121463D01*
X0058953Y0121600D01*
X0058871Y0121738D01*
X0058793Y0121879D01*
X0058719Y0122021D01*
X0058648Y0122165D01*
X0058580Y0122311D01*
X0058517Y0122459D01*
X0058456Y0122608D01*
X0058400Y0122759D01*
X0058347Y0122911D01*
X0058298Y0123064D01*
X0058253Y0123218D01*
X0058212Y0123373D01*
X0058174Y0123530D01*
X0058141Y0123687D01*
X0058111Y0123845D01*
X0058085Y0124004D01*
X0058064Y0124163D01*
X0058046Y0124323D01*
X0058032Y0124483D01*
X0058022Y0124644D01*
X0058016Y0124804D01*
X0058014Y0124965D01*
X0138014Y0124965D02*
X0138016Y0125126D01*
X0138022Y0125286D01*
X0138032Y0125447D01*
X0138046Y0125607D01*
X0138064Y0125767D01*
X0138085Y0125926D01*
X0138111Y0126085D01*
X0138141Y0126243D01*
X0138174Y0126400D01*
X0138212Y0126557D01*
X0138253Y0126712D01*
X0138298Y0126866D01*
X0138347Y0127019D01*
X0138400Y0127171D01*
X0138456Y0127322D01*
X0138517Y0127471D01*
X0138580Y0127619D01*
X0138648Y0127765D01*
X0138719Y0127909D01*
X0138793Y0128051D01*
X0138871Y0128192D01*
X0138953Y0128330D01*
X0139038Y0128467D01*
X0139126Y0128601D01*
X0139218Y0128733D01*
X0139313Y0128863D01*
X0139411Y0128991D01*
X0139512Y0129116D01*
X0139616Y0129238D01*
X0139723Y0129358D01*
X0139833Y0129475D01*
X0139946Y0129590D01*
X0140062Y0129701D01*
X0140181Y0129810D01*
X0140302Y0129915D01*
X0140426Y0130018D01*
X0140552Y0130118D01*
X0140680Y0130214D01*
X0140811Y0130307D01*
X0140945Y0130397D01*
X0141080Y0130484D01*
X0141218Y0130567D01*
X0141357Y0130647D01*
X0141499Y0130723D01*
X0141642Y0130796D01*
X0141787Y0130865D01*
X0141934Y0130931D01*
X0142082Y0130993D01*
X0142232Y0131051D01*
X0142383Y0131106D01*
X0142536Y0131157D01*
X0142690Y0131204D01*
X0142845Y0131247D01*
X0143001Y0131286D01*
X0143157Y0131322D01*
X0143315Y0131353D01*
X0143473Y0131381D01*
X0143632Y0131405D01*
X0143792Y0131425D01*
X0143952Y0131441D01*
X0144112Y0131453D01*
X0144273Y0131461D01*
X0144434Y0131465D01*
X0144594Y0131465D01*
X0144755Y0131461D01*
X0144916Y0131453D01*
X0145076Y0131441D01*
X0145236Y0131425D01*
X0145396Y0131405D01*
X0145555Y0131381D01*
X0145713Y0131353D01*
X0145871Y0131322D01*
X0146027Y0131286D01*
X0146183Y0131247D01*
X0146338Y0131204D01*
X0146492Y0131157D01*
X0146645Y0131106D01*
X0146796Y0131051D01*
X0146946Y0130993D01*
X0147094Y0130931D01*
X0147241Y0130865D01*
X0147386Y0130796D01*
X0147529Y0130723D01*
X0147671Y0130647D01*
X0147810Y0130567D01*
X0147948Y0130484D01*
X0148083Y0130397D01*
X0148217Y0130307D01*
X0148348Y0130214D01*
X0148476Y0130118D01*
X0148602Y0130018D01*
X0148726Y0129915D01*
X0148847Y0129810D01*
X0148966Y0129701D01*
X0149082Y0129590D01*
X0149195Y0129475D01*
X0149305Y0129358D01*
X0149412Y0129238D01*
X0149516Y0129116D01*
X0149617Y0128991D01*
X0149715Y0128863D01*
X0149810Y0128733D01*
X0149902Y0128601D01*
X0149990Y0128467D01*
X0150075Y0128330D01*
X0150157Y0128192D01*
X0150235Y0128051D01*
X0150309Y0127909D01*
X0150380Y0127765D01*
X0150448Y0127619D01*
X0150511Y0127471D01*
X0150572Y0127322D01*
X0150628Y0127171D01*
X0150681Y0127019D01*
X0150730Y0126866D01*
X0150775Y0126712D01*
X0150816Y0126557D01*
X0150854Y0126400D01*
X0150887Y0126243D01*
X0150917Y0126085D01*
X0150943Y0125926D01*
X0150964Y0125767D01*
X0150982Y0125607D01*
X0150996Y0125447D01*
X0151006Y0125286D01*
X0151012Y0125126D01*
X0151014Y0124965D01*
X0151012Y0124804D01*
X0151006Y0124644D01*
X0150996Y0124483D01*
X0150982Y0124323D01*
X0150964Y0124163D01*
X0150943Y0124004D01*
X0150917Y0123845D01*
X0150887Y0123687D01*
X0150854Y0123530D01*
X0150816Y0123373D01*
X0150775Y0123218D01*
X0150730Y0123064D01*
X0150681Y0122911D01*
X0150628Y0122759D01*
X0150572Y0122608D01*
X0150511Y0122459D01*
X0150448Y0122311D01*
X0150380Y0122165D01*
X0150309Y0122021D01*
X0150235Y0121879D01*
X0150157Y0121738D01*
X0150075Y0121600D01*
X0149990Y0121463D01*
X0149902Y0121329D01*
X0149810Y0121197D01*
X0149715Y0121067D01*
X0149617Y0120939D01*
X0149516Y0120814D01*
X0149412Y0120692D01*
X0149305Y0120572D01*
X0149195Y0120455D01*
X0149082Y0120340D01*
X0148966Y0120229D01*
X0148847Y0120120D01*
X0148726Y0120015D01*
X0148602Y0119912D01*
X0148476Y0119812D01*
X0148348Y0119716D01*
X0148217Y0119623D01*
X0148083Y0119533D01*
X0147948Y0119446D01*
X0147810Y0119363D01*
X0147671Y0119283D01*
X0147529Y0119207D01*
X0147386Y0119134D01*
X0147241Y0119065D01*
X0147094Y0118999D01*
X0146946Y0118937D01*
X0146796Y0118879D01*
X0146645Y0118824D01*
X0146492Y0118773D01*
X0146338Y0118726D01*
X0146183Y0118683D01*
X0146027Y0118644D01*
X0145871Y0118608D01*
X0145713Y0118577D01*
X0145555Y0118549D01*
X0145396Y0118525D01*
X0145236Y0118505D01*
X0145076Y0118489D01*
X0144916Y0118477D01*
X0144755Y0118469D01*
X0144594Y0118465D01*
X0144434Y0118465D01*
X0144273Y0118469D01*
X0144112Y0118477D01*
X0143952Y0118489D01*
X0143792Y0118505D01*
X0143632Y0118525D01*
X0143473Y0118549D01*
X0143315Y0118577D01*
X0143157Y0118608D01*
X0143001Y0118644D01*
X0142845Y0118683D01*
X0142690Y0118726D01*
X0142536Y0118773D01*
X0142383Y0118824D01*
X0142232Y0118879D01*
X0142082Y0118937D01*
X0141934Y0118999D01*
X0141787Y0119065D01*
X0141642Y0119134D01*
X0141499Y0119207D01*
X0141357Y0119283D01*
X0141218Y0119363D01*
X0141080Y0119446D01*
X0140945Y0119533D01*
X0140811Y0119623D01*
X0140680Y0119716D01*
X0140552Y0119812D01*
X0140426Y0119912D01*
X0140302Y0120015D01*
X0140181Y0120120D01*
X0140062Y0120229D01*
X0139946Y0120340D01*
X0139833Y0120455D01*
X0139723Y0120572D01*
X0139616Y0120692D01*
X0139512Y0120814D01*
X0139411Y0120939D01*
X0139313Y0121067D01*
X0139218Y0121197D01*
X0139126Y0121329D01*
X0139038Y0121463D01*
X0138953Y0121600D01*
X0138871Y0121738D01*
X0138793Y0121879D01*
X0138719Y0122021D01*
X0138648Y0122165D01*
X0138580Y0122311D01*
X0138517Y0122459D01*
X0138456Y0122608D01*
X0138400Y0122759D01*
X0138347Y0122911D01*
X0138298Y0123064D01*
X0138253Y0123218D01*
X0138212Y0123373D01*
X0138174Y0123530D01*
X0138141Y0123687D01*
X0138111Y0123845D01*
X0138085Y0124004D01*
X0138064Y0124163D01*
X0138046Y0124323D01*
X0138032Y0124483D01*
X0138022Y0124644D01*
X0138016Y0124804D01*
X0138014Y0124965D01*
X0159019Y0124965D02*
X0159021Y0125126D01*
X0159027Y0125286D01*
X0159037Y0125447D01*
X0159051Y0125607D01*
X0159069Y0125767D01*
X0159090Y0125926D01*
X0159116Y0126085D01*
X0159146Y0126243D01*
X0159179Y0126400D01*
X0159217Y0126557D01*
X0159258Y0126712D01*
X0159303Y0126866D01*
X0159352Y0127019D01*
X0159405Y0127171D01*
X0159461Y0127322D01*
X0159522Y0127471D01*
X0159585Y0127619D01*
X0159653Y0127765D01*
X0159724Y0127909D01*
X0159798Y0128051D01*
X0159876Y0128192D01*
X0159958Y0128330D01*
X0160043Y0128467D01*
X0160131Y0128601D01*
X0160223Y0128733D01*
X0160318Y0128863D01*
X0160416Y0128991D01*
X0160517Y0129116D01*
X0160621Y0129238D01*
X0160728Y0129358D01*
X0160838Y0129475D01*
X0160951Y0129590D01*
X0161067Y0129701D01*
X0161186Y0129810D01*
X0161307Y0129915D01*
X0161431Y0130018D01*
X0161557Y0130118D01*
X0161685Y0130214D01*
X0161816Y0130307D01*
X0161950Y0130397D01*
X0162085Y0130484D01*
X0162223Y0130567D01*
X0162362Y0130647D01*
X0162504Y0130723D01*
X0162647Y0130796D01*
X0162792Y0130865D01*
X0162939Y0130931D01*
X0163087Y0130993D01*
X0163237Y0131051D01*
X0163388Y0131106D01*
X0163541Y0131157D01*
X0163695Y0131204D01*
X0163850Y0131247D01*
X0164006Y0131286D01*
X0164162Y0131322D01*
X0164320Y0131353D01*
X0164478Y0131381D01*
X0164637Y0131405D01*
X0164797Y0131425D01*
X0164957Y0131441D01*
X0165117Y0131453D01*
X0165278Y0131461D01*
X0165439Y0131465D01*
X0165599Y0131465D01*
X0165760Y0131461D01*
X0165921Y0131453D01*
X0166081Y0131441D01*
X0166241Y0131425D01*
X0166401Y0131405D01*
X0166560Y0131381D01*
X0166718Y0131353D01*
X0166876Y0131322D01*
X0167032Y0131286D01*
X0167188Y0131247D01*
X0167343Y0131204D01*
X0167497Y0131157D01*
X0167650Y0131106D01*
X0167801Y0131051D01*
X0167951Y0130993D01*
X0168099Y0130931D01*
X0168246Y0130865D01*
X0168391Y0130796D01*
X0168534Y0130723D01*
X0168676Y0130647D01*
X0168815Y0130567D01*
X0168953Y0130484D01*
X0169088Y0130397D01*
X0169222Y0130307D01*
X0169353Y0130214D01*
X0169481Y0130118D01*
X0169607Y0130018D01*
X0169731Y0129915D01*
X0169852Y0129810D01*
X0169971Y0129701D01*
X0170087Y0129590D01*
X0170200Y0129475D01*
X0170310Y0129358D01*
X0170417Y0129238D01*
X0170521Y0129116D01*
X0170622Y0128991D01*
X0170720Y0128863D01*
X0170815Y0128733D01*
X0170907Y0128601D01*
X0170995Y0128467D01*
X0171080Y0128330D01*
X0171162Y0128192D01*
X0171240Y0128051D01*
X0171314Y0127909D01*
X0171385Y0127765D01*
X0171453Y0127619D01*
X0171516Y0127471D01*
X0171577Y0127322D01*
X0171633Y0127171D01*
X0171686Y0127019D01*
X0171735Y0126866D01*
X0171780Y0126712D01*
X0171821Y0126557D01*
X0171859Y0126400D01*
X0171892Y0126243D01*
X0171922Y0126085D01*
X0171948Y0125926D01*
X0171969Y0125767D01*
X0171987Y0125607D01*
X0172001Y0125447D01*
X0172011Y0125286D01*
X0172017Y0125126D01*
X0172019Y0124965D01*
X0172017Y0124804D01*
X0172011Y0124644D01*
X0172001Y0124483D01*
X0171987Y0124323D01*
X0171969Y0124163D01*
X0171948Y0124004D01*
X0171922Y0123845D01*
X0171892Y0123687D01*
X0171859Y0123530D01*
X0171821Y0123373D01*
X0171780Y0123218D01*
X0171735Y0123064D01*
X0171686Y0122911D01*
X0171633Y0122759D01*
X0171577Y0122608D01*
X0171516Y0122459D01*
X0171453Y0122311D01*
X0171385Y0122165D01*
X0171314Y0122021D01*
X0171240Y0121879D01*
X0171162Y0121738D01*
X0171080Y0121600D01*
X0170995Y0121463D01*
X0170907Y0121329D01*
X0170815Y0121197D01*
X0170720Y0121067D01*
X0170622Y0120939D01*
X0170521Y0120814D01*
X0170417Y0120692D01*
X0170310Y0120572D01*
X0170200Y0120455D01*
X0170087Y0120340D01*
X0169971Y0120229D01*
X0169852Y0120120D01*
X0169731Y0120015D01*
X0169607Y0119912D01*
X0169481Y0119812D01*
X0169353Y0119716D01*
X0169222Y0119623D01*
X0169088Y0119533D01*
X0168953Y0119446D01*
X0168815Y0119363D01*
X0168676Y0119283D01*
X0168534Y0119207D01*
X0168391Y0119134D01*
X0168246Y0119065D01*
X0168099Y0118999D01*
X0167951Y0118937D01*
X0167801Y0118879D01*
X0167650Y0118824D01*
X0167497Y0118773D01*
X0167343Y0118726D01*
X0167188Y0118683D01*
X0167032Y0118644D01*
X0166876Y0118608D01*
X0166718Y0118577D01*
X0166560Y0118549D01*
X0166401Y0118525D01*
X0166241Y0118505D01*
X0166081Y0118489D01*
X0165921Y0118477D01*
X0165760Y0118469D01*
X0165599Y0118465D01*
X0165439Y0118465D01*
X0165278Y0118469D01*
X0165117Y0118477D01*
X0164957Y0118489D01*
X0164797Y0118505D01*
X0164637Y0118525D01*
X0164478Y0118549D01*
X0164320Y0118577D01*
X0164162Y0118608D01*
X0164006Y0118644D01*
X0163850Y0118683D01*
X0163695Y0118726D01*
X0163541Y0118773D01*
X0163388Y0118824D01*
X0163237Y0118879D01*
X0163087Y0118937D01*
X0162939Y0118999D01*
X0162792Y0119065D01*
X0162647Y0119134D01*
X0162504Y0119207D01*
X0162362Y0119283D01*
X0162223Y0119363D01*
X0162085Y0119446D01*
X0161950Y0119533D01*
X0161816Y0119623D01*
X0161685Y0119716D01*
X0161557Y0119812D01*
X0161431Y0119912D01*
X0161307Y0120015D01*
X0161186Y0120120D01*
X0161067Y0120229D01*
X0160951Y0120340D01*
X0160838Y0120455D01*
X0160728Y0120572D01*
X0160621Y0120692D01*
X0160517Y0120814D01*
X0160416Y0120939D01*
X0160318Y0121067D01*
X0160223Y0121197D01*
X0160131Y0121329D01*
X0160043Y0121463D01*
X0159958Y0121600D01*
X0159876Y0121738D01*
X0159798Y0121879D01*
X0159724Y0122021D01*
X0159653Y0122165D01*
X0159585Y0122311D01*
X0159522Y0122459D01*
X0159461Y0122608D01*
X0159405Y0122759D01*
X0159352Y0122911D01*
X0159303Y0123064D01*
X0159258Y0123218D01*
X0159217Y0123373D01*
X0159179Y0123530D01*
X0159146Y0123687D01*
X0159116Y0123845D01*
X0159090Y0124004D01*
X0159069Y0124163D01*
X0159051Y0124323D01*
X0159037Y0124483D01*
X0159027Y0124644D01*
X0159021Y0124804D01*
X0159019Y0124965D01*
X0239019Y0124965D02*
X0239021Y0125126D01*
X0239027Y0125286D01*
X0239037Y0125447D01*
X0239051Y0125607D01*
X0239069Y0125767D01*
X0239090Y0125926D01*
X0239116Y0126085D01*
X0239146Y0126243D01*
X0239179Y0126400D01*
X0239217Y0126557D01*
X0239258Y0126712D01*
X0239303Y0126866D01*
X0239352Y0127019D01*
X0239405Y0127171D01*
X0239461Y0127322D01*
X0239522Y0127471D01*
X0239585Y0127619D01*
X0239653Y0127765D01*
X0239724Y0127909D01*
X0239798Y0128051D01*
X0239876Y0128192D01*
X0239958Y0128330D01*
X0240043Y0128467D01*
X0240131Y0128601D01*
X0240223Y0128733D01*
X0240318Y0128863D01*
X0240416Y0128991D01*
X0240517Y0129116D01*
X0240621Y0129238D01*
X0240728Y0129358D01*
X0240838Y0129475D01*
X0240951Y0129590D01*
X0241067Y0129701D01*
X0241186Y0129810D01*
X0241307Y0129915D01*
X0241431Y0130018D01*
X0241557Y0130118D01*
X0241685Y0130214D01*
X0241816Y0130307D01*
X0241950Y0130397D01*
X0242085Y0130484D01*
X0242223Y0130567D01*
X0242362Y0130647D01*
X0242504Y0130723D01*
X0242647Y0130796D01*
X0242792Y0130865D01*
X0242939Y0130931D01*
X0243087Y0130993D01*
X0243237Y0131051D01*
X0243388Y0131106D01*
X0243541Y0131157D01*
X0243695Y0131204D01*
X0243850Y0131247D01*
X0244006Y0131286D01*
X0244162Y0131322D01*
X0244320Y0131353D01*
X0244478Y0131381D01*
X0244637Y0131405D01*
X0244797Y0131425D01*
X0244957Y0131441D01*
X0245117Y0131453D01*
X0245278Y0131461D01*
X0245439Y0131465D01*
X0245599Y0131465D01*
X0245760Y0131461D01*
X0245921Y0131453D01*
X0246081Y0131441D01*
X0246241Y0131425D01*
X0246401Y0131405D01*
X0246560Y0131381D01*
X0246718Y0131353D01*
X0246876Y0131322D01*
X0247032Y0131286D01*
X0247188Y0131247D01*
X0247343Y0131204D01*
X0247497Y0131157D01*
X0247650Y0131106D01*
X0247801Y0131051D01*
X0247951Y0130993D01*
X0248099Y0130931D01*
X0248246Y0130865D01*
X0248391Y0130796D01*
X0248534Y0130723D01*
X0248676Y0130647D01*
X0248815Y0130567D01*
X0248953Y0130484D01*
X0249088Y0130397D01*
X0249222Y0130307D01*
X0249353Y0130214D01*
X0249481Y0130118D01*
X0249607Y0130018D01*
X0249731Y0129915D01*
X0249852Y0129810D01*
X0249971Y0129701D01*
X0250087Y0129590D01*
X0250200Y0129475D01*
X0250310Y0129358D01*
X0250417Y0129238D01*
X0250521Y0129116D01*
X0250622Y0128991D01*
X0250720Y0128863D01*
X0250815Y0128733D01*
X0250907Y0128601D01*
X0250995Y0128467D01*
X0251080Y0128330D01*
X0251162Y0128192D01*
X0251240Y0128051D01*
X0251314Y0127909D01*
X0251385Y0127765D01*
X0251453Y0127619D01*
X0251516Y0127471D01*
X0251577Y0127322D01*
X0251633Y0127171D01*
X0251686Y0127019D01*
X0251735Y0126866D01*
X0251780Y0126712D01*
X0251821Y0126557D01*
X0251859Y0126400D01*
X0251892Y0126243D01*
X0251922Y0126085D01*
X0251948Y0125926D01*
X0251969Y0125767D01*
X0251987Y0125607D01*
X0252001Y0125447D01*
X0252011Y0125286D01*
X0252017Y0125126D01*
X0252019Y0124965D01*
X0252017Y0124804D01*
X0252011Y0124644D01*
X0252001Y0124483D01*
X0251987Y0124323D01*
X0251969Y0124163D01*
X0251948Y0124004D01*
X0251922Y0123845D01*
X0251892Y0123687D01*
X0251859Y0123530D01*
X0251821Y0123373D01*
X0251780Y0123218D01*
X0251735Y0123064D01*
X0251686Y0122911D01*
X0251633Y0122759D01*
X0251577Y0122608D01*
X0251516Y0122459D01*
X0251453Y0122311D01*
X0251385Y0122165D01*
X0251314Y0122021D01*
X0251240Y0121879D01*
X0251162Y0121738D01*
X0251080Y0121600D01*
X0250995Y0121463D01*
X0250907Y0121329D01*
X0250815Y0121197D01*
X0250720Y0121067D01*
X0250622Y0120939D01*
X0250521Y0120814D01*
X0250417Y0120692D01*
X0250310Y0120572D01*
X0250200Y0120455D01*
X0250087Y0120340D01*
X0249971Y0120229D01*
X0249852Y0120120D01*
X0249731Y0120015D01*
X0249607Y0119912D01*
X0249481Y0119812D01*
X0249353Y0119716D01*
X0249222Y0119623D01*
X0249088Y0119533D01*
X0248953Y0119446D01*
X0248815Y0119363D01*
X0248676Y0119283D01*
X0248534Y0119207D01*
X0248391Y0119134D01*
X0248246Y0119065D01*
X0248099Y0118999D01*
X0247951Y0118937D01*
X0247801Y0118879D01*
X0247650Y0118824D01*
X0247497Y0118773D01*
X0247343Y0118726D01*
X0247188Y0118683D01*
X0247032Y0118644D01*
X0246876Y0118608D01*
X0246718Y0118577D01*
X0246560Y0118549D01*
X0246401Y0118525D01*
X0246241Y0118505D01*
X0246081Y0118489D01*
X0245921Y0118477D01*
X0245760Y0118469D01*
X0245599Y0118465D01*
X0245439Y0118465D01*
X0245278Y0118469D01*
X0245117Y0118477D01*
X0244957Y0118489D01*
X0244797Y0118505D01*
X0244637Y0118525D01*
X0244478Y0118549D01*
X0244320Y0118577D01*
X0244162Y0118608D01*
X0244006Y0118644D01*
X0243850Y0118683D01*
X0243695Y0118726D01*
X0243541Y0118773D01*
X0243388Y0118824D01*
X0243237Y0118879D01*
X0243087Y0118937D01*
X0242939Y0118999D01*
X0242792Y0119065D01*
X0242647Y0119134D01*
X0242504Y0119207D01*
X0242362Y0119283D01*
X0242223Y0119363D01*
X0242085Y0119446D01*
X0241950Y0119533D01*
X0241816Y0119623D01*
X0241685Y0119716D01*
X0241557Y0119812D01*
X0241431Y0119912D01*
X0241307Y0120015D01*
X0241186Y0120120D01*
X0241067Y0120229D01*
X0240951Y0120340D01*
X0240838Y0120455D01*
X0240728Y0120572D01*
X0240621Y0120692D01*
X0240517Y0120814D01*
X0240416Y0120939D01*
X0240318Y0121067D01*
X0240223Y0121197D01*
X0240131Y0121329D01*
X0240043Y0121463D01*
X0239958Y0121600D01*
X0239876Y0121738D01*
X0239798Y0121879D01*
X0239724Y0122021D01*
X0239653Y0122165D01*
X0239585Y0122311D01*
X0239522Y0122459D01*
X0239461Y0122608D01*
X0239405Y0122759D01*
X0239352Y0122911D01*
X0239303Y0123064D01*
X0239258Y0123218D01*
X0239217Y0123373D01*
X0239179Y0123530D01*
X0239146Y0123687D01*
X0239116Y0123845D01*
X0239090Y0124004D01*
X0239069Y0124163D01*
X0239051Y0124323D01*
X0239037Y0124483D01*
X0239027Y0124644D01*
X0239021Y0124804D01*
X0239019Y0124965D01*
X0260024Y0124965D02*
X0260026Y0125126D01*
X0260032Y0125286D01*
X0260042Y0125447D01*
X0260056Y0125607D01*
X0260074Y0125767D01*
X0260095Y0125926D01*
X0260121Y0126085D01*
X0260151Y0126243D01*
X0260184Y0126400D01*
X0260222Y0126557D01*
X0260263Y0126712D01*
X0260308Y0126866D01*
X0260357Y0127019D01*
X0260410Y0127171D01*
X0260466Y0127322D01*
X0260527Y0127471D01*
X0260590Y0127619D01*
X0260658Y0127765D01*
X0260729Y0127909D01*
X0260803Y0128051D01*
X0260881Y0128192D01*
X0260963Y0128330D01*
X0261048Y0128467D01*
X0261136Y0128601D01*
X0261228Y0128733D01*
X0261323Y0128863D01*
X0261421Y0128991D01*
X0261522Y0129116D01*
X0261626Y0129238D01*
X0261733Y0129358D01*
X0261843Y0129475D01*
X0261956Y0129590D01*
X0262072Y0129701D01*
X0262191Y0129810D01*
X0262312Y0129915D01*
X0262436Y0130018D01*
X0262562Y0130118D01*
X0262690Y0130214D01*
X0262821Y0130307D01*
X0262955Y0130397D01*
X0263090Y0130484D01*
X0263228Y0130567D01*
X0263367Y0130647D01*
X0263509Y0130723D01*
X0263652Y0130796D01*
X0263797Y0130865D01*
X0263944Y0130931D01*
X0264092Y0130993D01*
X0264242Y0131051D01*
X0264393Y0131106D01*
X0264546Y0131157D01*
X0264700Y0131204D01*
X0264855Y0131247D01*
X0265011Y0131286D01*
X0265167Y0131322D01*
X0265325Y0131353D01*
X0265483Y0131381D01*
X0265642Y0131405D01*
X0265802Y0131425D01*
X0265962Y0131441D01*
X0266122Y0131453D01*
X0266283Y0131461D01*
X0266444Y0131465D01*
X0266604Y0131465D01*
X0266765Y0131461D01*
X0266926Y0131453D01*
X0267086Y0131441D01*
X0267246Y0131425D01*
X0267406Y0131405D01*
X0267565Y0131381D01*
X0267723Y0131353D01*
X0267881Y0131322D01*
X0268037Y0131286D01*
X0268193Y0131247D01*
X0268348Y0131204D01*
X0268502Y0131157D01*
X0268655Y0131106D01*
X0268806Y0131051D01*
X0268956Y0130993D01*
X0269104Y0130931D01*
X0269251Y0130865D01*
X0269396Y0130796D01*
X0269539Y0130723D01*
X0269681Y0130647D01*
X0269820Y0130567D01*
X0269958Y0130484D01*
X0270093Y0130397D01*
X0270227Y0130307D01*
X0270358Y0130214D01*
X0270486Y0130118D01*
X0270612Y0130018D01*
X0270736Y0129915D01*
X0270857Y0129810D01*
X0270976Y0129701D01*
X0271092Y0129590D01*
X0271205Y0129475D01*
X0271315Y0129358D01*
X0271422Y0129238D01*
X0271526Y0129116D01*
X0271627Y0128991D01*
X0271725Y0128863D01*
X0271820Y0128733D01*
X0271912Y0128601D01*
X0272000Y0128467D01*
X0272085Y0128330D01*
X0272167Y0128192D01*
X0272245Y0128051D01*
X0272319Y0127909D01*
X0272390Y0127765D01*
X0272458Y0127619D01*
X0272521Y0127471D01*
X0272582Y0127322D01*
X0272638Y0127171D01*
X0272691Y0127019D01*
X0272740Y0126866D01*
X0272785Y0126712D01*
X0272826Y0126557D01*
X0272864Y0126400D01*
X0272897Y0126243D01*
X0272927Y0126085D01*
X0272953Y0125926D01*
X0272974Y0125767D01*
X0272992Y0125607D01*
X0273006Y0125447D01*
X0273016Y0125286D01*
X0273022Y0125126D01*
X0273024Y0124965D01*
X0273022Y0124804D01*
X0273016Y0124644D01*
X0273006Y0124483D01*
X0272992Y0124323D01*
X0272974Y0124163D01*
X0272953Y0124004D01*
X0272927Y0123845D01*
X0272897Y0123687D01*
X0272864Y0123530D01*
X0272826Y0123373D01*
X0272785Y0123218D01*
X0272740Y0123064D01*
X0272691Y0122911D01*
X0272638Y0122759D01*
X0272582Y0122608D01*
X0272521Y0122459D01*
X0272458Y0122311D01*
X0272390Y0122165D01*
X0272319Y0122021D01*
X0272245Y0121879D01*
X0272167Y0121738D01*
X0272085Y0121600D01*
X0272000Y0121463D01*
X0271912Y0121329D01*
X0271820Y0121197D01*
X0271725Y0121067D01*
X0271627Y0120939D01*
X0271526Y0120814D01*
X0271422Y0120692D01*
X0271315Y0120572D01*
X0271205Y0120455D01*
X0271092Y0120340D01*
X0270976Y0120229D01*
X0270857Y0120120D01*
X0270736Y0120015D01*
X0270612Y0119912D01*
X0270486Y0119812D01*
X0270358Y0119716D01*
X0270227Y0119623D01*
X0270093Y0119533D01*
X0269958Y0119446D01*
X0269820Y0119363D01*
X0269681Y0119283D01*
X0269539Y0119207D01*
X0269396Y0119134D01*
X0269251Y0119065D01*
X0269104Y0118999D01*
X0268956Y0118937D01*
X0268806Y0118879D01*
X0268655Y0118824D01*
X0268502Y0118773D01*
X0268348Y0118726D01*
X0268193Y0118683D01*
X0268037Y0118644D01*
X0267881Y0118608D01*
X0267723Y0118577D01*
X0267565Y0118549D01*
X0267406Y0118525D01*
X0267246Y0118505D01*
X0267086Y0118489D01*
X0266926Y0118477D01*
X0266765Y0118469D01*
X0266604Y0118465D01*
X0266444Y0118465D01*
X0266283Y0118469D01*
X0266122Y0118477D01*
X0265962Y0118489D01*
X0265802Y0118505D01*
X0265642Y0118525D01*
X0265483Y0118549D01*
X0265325Y0118577D01*
X0265167Y0118608D01*
X0265011Y0118644D01*
X0264855Y0118683D01*
X0264700Y0118726D01*
X0264546Y0118773D01*
X0264393Y0118824D01*
X0264242Y0118879D01*
X0264092Y0118937D01*
X0263944Y0118999D01*
X0263797Y0119065D01*
X0263652Y0119134D01*
X0263509Y0119207D01*
X0263367Y0119283D01*
X0263228Y0119363D01*
X0263090Y0119446D01*
X0262955Y0119533D01*
X0262821Y0119623D01*
X0262690Y0119716D01*
X0262562Y0119812D01*
X0262436Y0119912D01*
X0262312Y0120015D01*
X0262191Y0120120D01*
X0262072Y0120229D01*
X0261956Y0120340D01*
X0261843Y0120455D01*
X0261733Y0120572D01*
X0261626Y0120692D01*
X0261522Y0120814D01*
X0261421Y0120939D01*
X0261323Y0121067D01*
X0261228Y0121197D01*
X0261136Y0121329D01*
X0261048Y0121463D01*
X0260963Y0121600D01*
X0260881Y0121738D01*
X0260803Y0121879D01*
X0260729Y0122021D01*
X0260658Y0122165D01*
X0260590Y0122311D01*
X0260527Y0122459D01*
X0260466Y0122608D01*
X0260410Y0122759D01*
X0260357Y0122911D01*
X0260308Y0123064D01*
X0260263Y0123218D01*
X0260222Y0123373D01*
X0260184Y0123530D01*
X0260151Y0123687D01*
X0260121Y0123845D01*
X0260095Y0124004D01*
X0260074Y0124163D01*
X0260056Y0124323D01*
X0260042Y0124483D01*
X0260032Y0124644D01*
X0260026Y0124804D01*
X0260024Y0124965D01*
X0340024Y0124965D02*
X0340026Y0125126D01*
X0340032Y0125286D01*
X0340042Y0125447D01*
X0340056Y0125607D01*
X0340074Y0125767D01*
X0340095Y0125926D01*
X0340121Y0126085D01*
X0340151Y0126243D01*
X0340184Y0126400D01*
X0340222Y0126557D01*
X0340263Y0126712D01*
X0340308Y0126866D01*
X0340357Y0127019D01*
X0340410Y0127171D01*
X0340466Y0127322D01*
X0340527Y0127471D01*
X0340590Y0127619D01*
X0340658Y0127765D01*
X0340729Y0127909D01*
X0340803Y0128051D01*
X0340881Y0128192D01*
X0340963Y0128330D01*
X0341048Y0128467D01*
X0341136Y0128601D01*
X0341228Y0128733D01*
X0341323Y0128863D01*
X0341421Y0128991D01*
X0341522Y0129116D01*
X0341626Y0129238D01*
X0341733Y0129358D01*
X0341843Y0129475D01*
X0341956Y0129590D01*
X0342072Y0129701D01*
X0342191Y0129810D01*
X0342312Y0129915D01*
X0342436Y0130018D01*
X0342562Y0130118D01*
X0342690Y0130214D01*
X0342821Y0130307D01*
X0342955Y0130397D01*
X0343090Y0130484D01*
X0343228Y0130567D01*
X0343367Y0130647D01*
X0343509Y0130723D01*
X0343652Y0130796D01*
X0343797Y0130865D01*
X0343944Y0130931D01*
X0344092Y0130993D01*
X0344242Y0131051D01*
X0344393Y0131106D01*
X0344546Y0131157D01*
X0344700Y0131204D01*
X0344855Y0131247D01*
X0345011Y0131286D01*
X0345167Y0131322D01*
X0345325Y0131353D01*
X0345483Y0131381D01*
X0345642Y0131405D01*
X0345802Y0131425D01*
X0345962Y0131441D01*
X0346122Y0131453D01*
X0346283Y0131461D01*
X0346444Y0131465D01*
X0346604Y0131465D01*
X0346765Y0131461D01*
X0346926Y0131453D01*
X0347086Y0131441D01*
X0347246Y0131425D01*
X0347406Y0131405D01*
X0347565Y0131381D01*
X0347723Y0131353D01*
X0347881Y0131322D01*
X0348037Y0131286D01*
X0348193Y0131247D01*
X0348348Y0131204D01*
X0348502Y0131157D01*
X0348655Y0131106D01*
X0348806Y0131051D01*
X0348956Y0130993D01*
X0349104Y0130931D01*
X0349251Y0130865D01*
X0349396Y0130796D01*
X0349539Y0130723D01*
X0349681Y0130647D01*
X0349820Y0130567D01*
X0349958Y0130484D01*
X0350093Y0130397D01*
X0350227Y0130307D01*
X0350358Y0130214D01*
X0350486Y0130118D01*
X0350612Y0130018D01*
X0350736Y0129915D01*
X0350857Y0129810D01*
X0350976Y0129701D01*
X0351092Y0129590D01*
X0351205Y0129475D01*
X0351315Y0129358D01*
X0351422Y0129238D01*
X0351526Y0129116D01*
X0351627Y0128991D01*
X0351725Y0128863D01*
X0351820Y0128733D01*
X0351912Y0128601D01*
X0352000Y0128467D01*
X0352085Y0128330D01*
X0352167Y0128192D01*
X0352245Y0128051D01*
X0352319Y0127909D01*
X0352390Y0127765D01*
X0352458Y0127619D01*
X0352521Y0127471D01*
X0352582Y0127322D01*
X0352638Y0127171D01*
X0352691Y0127019D01*
X0352740Y0126866D01*
X0352785Y0126712D01*
X0352826Y0126557D01*
X0352864Y0126400D01*
X0352897Y0126243D01*
X0352927Y0126085D01*
X0352953Y0125926D01*
X0352974Y0125767D01*
X0352992Y0125607D01*
X0353006Y0125447D01*
X0353016Y0125286D01*
X0353022Y0125126D01*
X0353024Y0124965D01*
X0353022Y0124804D01*
X0353016Y0124644D01*
X0353006Y0124483D01*
X0352992Y0124323D01*
X0352974Y0124163D01*
X0352953Y0124004D01*
X0352927Y0123845D01*
X0352897Y0123687D01*
X0352864Y0123530D01*
X0352826Y0123373D01*
X0352785Y0123218D01*
X0352740Y0123064D01*
X0352691Y0122911D01*
X0352638Y0122759D01*
X0352582Y0122608D01*
X0352521Y0122459D01*
X0352458Y0122311D01*
X0352390Y0122165D01*
X0352319Y0122021D01*
X0352245Y0121879D01*
X0352167Y0121738D01*
X0352085Y0121600D01*
X0352000Y0121463D01*
X0351912Y0121329D01*
X0351820Y0121197D01*
X0351725Y0121067D01*
X0351627Y0120939D01*
X0351526Y0120814D01*
X0351422Y0120692D01*
X0351315Y0120572D01*
X0351205Y0120455D01*
X0351092Y0120340D01*
X0350976Y0120229D01*
X0350857Y0120120D01*
X0350736Y0120015D01*
X0350612Y0119912D01*
X0350486Y0119812D01*
X0350358Y0119716D01*
X0350227Y0119623D01*
X0350093Y0119533D01*
X0349958Y0119446D01*
X0349820Y0119363D01*
X0349681Y0119283D01*
X0349539Y0119207D01*
X0349396Y0119134D01*
X0349251Y0119065D01*
X0349104Y0118999D01*
X0348956Y0118937D01*
X0348806Y0118879D01*
X0348655Y0118824D01*
X0348502Y0118773D01*
X0348348Y0118726D01*
X0348193Y0118683D01*
X0348037Y0118644D01*
X0347881Y0118608D01*
X0347723Y0118577D01*
X0347565Y0118549D01*
X0347406Y0118525D01*
X0347246Y0118505D01*
X0347086Y0118489D01*
X0346926Y0118477D01*
X0346765Y0118469D01*
X0346604Y0118465D01*
X0346444Y0118465D01*
X0346283Y0118469D01*
X0346122Y0118477D01*
X0345962Y0118489D01*
X0345802Y0118505D01*
X0345642Y0118525D01*
X0345483Y0118549D01*
X0345325Y0118577D01*
X0345167Y0118608D01*
X0345011Y0118644D01*
X0344855Y0118683D01*
X0344700Y0118726D01*
X0344546Y0118773D01*
X0344393Y0118824D01*
X0344242Y0118879D01*
X0344092Y0118937D01*
X0343944Y0118999D01*
X0343797Y0119065D01*
X0343652Y0119134D01*
X0343509Y0119207D01*
X0343367Y0119283D01*
X0343228Y0119363D01*
X0343090Y0119446D01*
X0342955Y0119533D01*
X0342821Y0119623D01*
X0342690Y0119716D01*
X0342562Y0119812D01*
X0342436Y0119912D01*
X0342312Y0120015D01*
X0342191Y0120120D01*
X0342072Y0120229D01*
X0341956Y0120340D01*
X0341843Y0120455D01*
X0341733Y0120572D01*
X0341626Y0120692D01*
X0341522Y0120814D01*
X0341421Y0120939D01*
X0341323Y0121067D01*
X0341228Y0121197D01*
X0341136Y0121329D01*
X0341048Y0121463D01*
X0340963Y0121600D01*
X0340881Y0121738D01*
X0340803Y0121879D01*
X0340729Y0122021D01*
X0340658Y0122165D01*
X0340590Y0122311D01*
X0340527Y0122459D01*
X0340466Y0122608D01*
X0340410Y0122759D01*
X0340357Y0122911D01*
X0340308Y0123064D01*
X0340263Y0123218D01*
X0340222Y0123373D01*
X0340184Y0123530D01*
X0340151Y0123687D01*
X0340121Y0123845D01*
X0340095Y0124004D01*
X0340074Y0124163D01*
X0340056Y0124323D01*
X0340042Y0124483D01*
X0340032Y0124644D01*
X0340026Y0124804D01*
X0340024Y0124965D01*
X0340024Y0225969D02*
X0340026Y0226130D01*
X0340032Y0226290D01*
X0340042Y0226451D01*
X0340056Y0226611D01*
X0340074Y0226771D01*
X0340095Y0226930D01*
X0340121Y0227089D01*
X0340151Y0227247D01*
X0340184Y0227404D01*
X0340222Y0227561D01*
X0340263Y0227716D01*
X0340308Y0227870D01*
X0340357Y0228023D01*
X0340410Y0228175D01*
X0340466Y0228326D01*
X0340527Y0228475D01*
X0340590Y0228623D01*
X0340658Y0228769D01*
X0340729Y0228913D01*
X0340803Y0229055D01*
X0340881Y0229196D01*
X0340963Y0229334D01*
X0341048Y0229471D01*
X0341136Y0229605D01*
X0341228Y0229737D01*
X0341323Y0229867D01*
X0341421Y0229995D01*
X0341522Y0230120D01*
X0341626Y0230242D01*
X0341733Y0230362D01*
X0341843Y0230479D01*
X0341956Y0230594D01*
X0342072Y0230705D01*
X0342191Y0230814D01*
X0342312Y0230919D01*
X0342436Y0231022D01*
X0342562Y0231122D01*
X0342690Y0231218D01*
X0342821Y0231311D01*
X0342955Y0231401D01*
X0343090Y0231488D01*
X0343228Y0231571D01*
X0343367Y0231651D01*
X0343509Y0231727D01*
X0343652Y0231800D01*
X0343797Y0231869D01*
X0343944Y0231935D01*
X0344092Y0231997D01*
X0344242Y0232055D01*
X0344393Y0232110D01*
X0344546Y0232161D01*
X0344700Y0232208D01*
X0344855Y0232251D01*
X0345011Y0232290D01*
X0345167Y0232326D01*
X0345325Y0232357D01*
X0345483Y0232385D01*
X0345642Y0232409D01*
X0345802Y0232429D01*
X0345962Y0232445D01*
X0346122Y0232457D01*
X0346283Y0232465D01*
X0346444Y0232469D01*
X0346604Y0232469D01*
X0346765Y0232465D01*
X0346926Y0232457D01*
X0347086Y0232445D01*
X0347246Y0232429D01*
X0347406Y0232409D01*
X0347565Y0232385D01*
X0347723Y0232357D01*
X0347881Y0232326D01*
X0348037Y0232290D01*
X0348193Y0232251D01*
X0348348Y0232208D01*
X0348502Y0232161D01*
X0348655Y0232110D01*
X0348806Y0232055D01*
X0348956Y0231997D01*
X0349104Y0231935D01*
X0349251Y0231869D01*
X0349396Y0231800D01*
X0349539Y0231727D01*
X0349681Y0231651D01*
X0349820Y0231571D01*
X0349958Y0231488D01*
X0350093Y0231401D01*
X0350227Y0231311D01*
X0350358Y0231218D01*
X0350486Y0231122D01*
X0350612Y0231022D01*
X0350736Y0230919D01*
X0350857Y0230814D01*
X0350976Y0230705D01*
X0351092Y0230594D01*
X0351205Y0230479D01*
X0351315Y0230362D01*
X0351422Y0230242D01*
X0351526Y0230120D01*
X0351627Y0229995D01*
X0351725Y0229867D01*
X0351820Y0229737D01*
X0351912Y0229605D01*
X0352000Y0229471D01*
X0352085Y0229334D01*
X0352167Y0229196D01*
X0352245Y0229055D01*
X0352319Y0228913D01*
X0352390Y0228769D01*
X0352458Y0228623D01*
X0352521Y0228475D01*
X0352582Y0228326D01*
X0352638Y0228175D01*
X0352691Y0228023D01*
X0352740Y0227870D01*
X0352785Y0227716D01*
X0352826Y0227561D01*
X0352864Y0227404D01*
X0352897Y0227247D01*
X0352927Y0227089D01*
X0352953Y0226930D01*
X0352974Y0226771D01*
X0352992Y0226611D01*
X0353006Y0226451D01*
X0353016Y0226290D01*
X0353022Y0226130D01*
X0353024Y0225969D01*
X0353022Y0225808D01*
X0353016Y0225648D01*
X0353006Y0225487D01*
X0352992Y0225327D01*
X0352974Y0225167D01*
X0352953Y0225008D01*
X0352927Y0224849D01*
X0352897Y0224691D01*
X0352864Y0224534D01*
X0352826Y0224377D01*
X0352785Y0224222D01*
X0352740Y0224068D01*
X0352691Y0223915D01*
X0352638Y0223763D01*
X0352582Y0223612D01*
X0352521Y0223463D01*
X0352458Y0223315D01*
X0352390Y0223169D01*
X0352319Y0223025D01*
X0352245Y0222883D01*
X0352167Y0222742D01*
X0352085Y0222604D01*
X0352000Y0222467D01*
X0351912Y0222333D01*
X0351820Y0222201D01*
X0351725Y0222071D01*
X0351627Y0221943D01*
X0351526Y0221818D01*
X0351422Y0221696D01*
X0351315Y0221576D01*
X0351205Y0221459D01*
X0351092Y0221344D01*
X0350976Y0221233D01*
X0350857Y0221124D01*
X0350736Y0221019D01*
X0350612Y0220916D01*
X0350486Y0220816D01*
X0350358Y0220720D01*
X0350227Y0220627D01*
X0350093Y0220537D01*
X0349958Y0220450D01*
X0349820Y0220367D01*
X0349681Y0220287D01*
X0349539Y0220211D01*
X0349396Y0220138D01*
X0349251Y0220069D01*
X0349104Y0220003D01*
X0348956Y0219941D01*
X0348806Y0219883D01*
X0348655Y0219828D01*
X0348502Y0219777D01*
X0348348Y0219730D01*
X0348193Y0219687D01*
X0348037Y0219648D01*
X0347881Y0219612D01*
X0347723Y0219581D01*
X0347565Y0219553D01*
X0347406Y0219529D01*
X0347246Y0219509D01*
X0347086Y0219493D01*
X0346926Y0219481D01*
X0346765Y0219473D01*
X0346604Y0219469D01*
X0346444Y0219469D01*
X0346283Y0219473D01*
X0346122Y0219481D01*
X0345962Y0219493D01*
X0345802Y0219509D01*
X0345642Y0219529D01*
X0345483Y0219553D01*
X0345325Y0219581D01*
X0345167Y0219612D01*
X0345011Y0219648D01*
X0344855Y0219687D01*
X0344700Y0219730D01*
X0344546Y0219777D01*
X0344393Y0219828D01*
X0344242Y0219883D01*
X0344092Y0219941D01*
X0343944Y0220003D01*
X0343797Y0220069D01*
X0343652Y0220138D01*
X0343509Y0220211D01*
X0343367Y0220287D01*
X0343228Y0220367D01*
X0343090Y0220450D01*
X0342955Y0220537D01*
X0342821Y0220627D01*
X0342690Y0220720D01*
X0342562Y0220816D01*
X0342436Y0220916D01*
X0342312Y0221019D01*
X0342191Y0221124D01*
X0342072Y0221233D01*
X0341956Y0221344D01*
X0341843Y0221459D01*
X0341733Y0221576D01*
X0341626Y0221696D01*
X0341522Y0221818D01*
X0341421Y0221943D01*
X0341323Y0222071D01*
X0341228Y0222201D01*
X0341136Y0222333D01*
X0341048Y0222467D01*
X0340963Y0222604D01*
X0340881Y0222742D01*
X0340803Y0222883D01*
X0340729Y0223025D01*
X0340658Y0223169D01*
X0340590Y0223315D01*
X0340527Y0223463D01*
X0340466Y0223612D01*
X0340410Y0223763D01*
X0340357Y0223915D01*
X0340308Y0224068D01*
X0340263Y0224222D01*
X0340222Y0224377D01*
X0340184Y0224534D01*
X0340151Y0224691D01*
X0340121Y0224849D01*
X0340095Y0225008D01*
X0340074Y0225167D01*
X0340056Y0225327D01*
X0340042Y0225487D01*
X0340032Y0225648D01*
X0340026Y0225808D01*
X0340024Y0225969D01*
X0340024Y0326974D02*
X0340026Y0327135D01*
X0340032Y0327295D01*
X0340042Y0327456D01*
X0340056Y0327616D01*
X0340074Y0327776D01*
X0340095Y0327935D01*
X0340121Y0328094D01*
X0340151Y0328252D01*
X0340184Y0328409D01*
X0340222Y0328566D01*
X0340263Y0328721D01*
X0340308Y0328875D01*
X0340357Y0329028D01*
X0340410Y0329180D01*
X0340466Y0329331D01*
X0340527Y0329480D01*
X0340590Y0329628D01*
X0340658Y0329774D01*
X0340729Y0329918D01*
X0340803Y0330060D01*
X0340881Y0330201D01*
X0340963Y0330339D01*
X0341048Y0330476D01*
X0341136Y0330610D01*
X0341228Y0330742D01*
X0341323Y0330872D01*
X0341421Y0331000D01*
X0341522Y0331125D01*
X0341626Y0331247D01*
X0341733Y0331367D01*
X0341843Y0331484D01*
X0341956Y0331599D01*
X0342072Y0331710D01*
X0342191Y0331819D01*
X0342312Y0331924D01*
X0342436Y0332027D01*
X0342562Y0332127D01*
X0342690Y0332223D01*
X0342821Y0332316D01*
X0342955Y0332406D01*
X0343090Y0332493D01*
X0343228Y0332576D01*
X0343367Y0332656D01*
X0343509Y0332732D01*
X0343652Y0332805D01*
X0343797Y0332874D01*
X0343944Y0332940D01*
X0344092Y0333002D01*
X0344242Y0333060D01*
X0344393Y0333115D01*
X0344546Y0333166D01*
X0344700Y0333213D01*
X0344855Y0333256D01*
X0345011Y0333295D01*
X0345167Y0333331D01*
X0345325Y0333362D01*
X0345483Y0333390D01*
X0345642Y0333414D01*
X0345802Y0333434D01*
X0345962Y0333450D01*
X0346122Y0333462D01*
X0346283Y0333470D01*
X0346444Y0333474D01*
X0346604Y0333474D01*
X0346765Y0333470D01*
X0346926Y0333462D01*
X0347086Y0333450D01*
X0347246Y0333434D01*
X0347406Y0333414D01*
X0347565Y0333390D01*
X0347723Y0333362D01*
X0347881Y0333331D01*
X0348037Y0333295D01*
X0348193Y0333256D01*
X0348348Y0333213D01*
X0348502Y0333166D01*
X0348655Y0333115D01*
X0348806Y0333060D01*
X0348956Y0333002D01*
X0349104Y0332940D01*
X0349251Y0332874D01*
X0349396Y0332805D01*
X0349539Y0332732D01*
X0349681Y0332656D01*
X0349820Y0332576D01*
X0349958Y0332493D01*
X0350093Y0332406D01*
X0350227Y0332316D01*
X0350358Y0332223D01*
X0350486Y0332127D01*
X0350612Y0332027D01*
X0350736Y0331924D01*
X0350857Y0331819D01*
X0350976Y0331710D01*
X0351092Y0331599D01*
X0351205Y0331484D01*
X0351315Y0331367D01*
X0351422Y0331247D01*
X0351526Y0331125D01*
X0351627Y0331000D01*
X0351725Y0330872D01*
X0351820Y0330742D01*
X0351912Y0330610D01*
X0352000Y0330476D01*
X0352085Y0330339D01*
X0352167Y0330201D01*
X0352245Y0330060D01*
X0352319Y0329918D01*
X0352390Y0329774D01*
X0352458Y0329628D01*
X0352521Y0329480D01*
X0352582Y0329331D01*
X0352638Y0329180D01*
X0352691Y0329028D01*
X0352740Y0328875D01*
X0352785Y0328721D01*
X0352826Y0328566D01*
X0352864Y0328409D01*
X0352897Y0328252D01*
X0352927Y0328094D01*
X0352953Y0327935D01*
X0352974Y0327776D01*
X0352992Y0327616D01*
X0353006Y0327456D01*
X0353016Y0327295D01*
X0353022Y0327135D01*
X0353024Y0326974D01*
X0353022Y0326813D01*
X0353016Y0326653D01*
X0353006Y0326492D01*
X0352992Y0326332D01*
X0352974Y0326172D01*
X0352953Y0326013D01*
X0352927Y0325854D01*
X0352897Y0325696D01*
X0352864Y0325539D01*
X0352826Y0325382D01*
X0352785Y0325227D01*
X0352740Y0325073D01*
X0352691Y0324920D01*
X0352638Y0324768D01*
X0352582Y0324617D01*
X0352521Y0324468D01*
X0352458Y0324320D01*
X0352390Y0324174D01*
X0352319Y0324030D01*
X0352245Y0323888D01*
X0352167Y0323747D01*
X0352085Y0323609D01*
X0352000Y0323472D01*
X0351912Y0323338D01*
X0351820Y0323206D01*
X0351725Y0323076D01*
X0351627Y0322948D01*
X0351526Y0322823D01*
X0351422Y0322701D01*
X0351315Y0322581D01*
X0351205Y0322464D01*
X0351092Y0322349D01*
X0350976Y0322238D01*
X0350857Y0322129D01*
X0350736Y0322024D01*
X0350612Y0321921D01*
X0350486Y0321821D01*
X0350358Y0321725D01*
X0350227Y0321632D01*
X0350093Y0321542D01*
X0349958Y0321455D01*
X0349820Y0321372D01*
X0349681Y0321292D01*
X0349539Y0321216D01*
X0349396Y0321143D01*
X0349251Y0321074D01*
X0349104Y0321008D01*
X0348956Y0320946D01*
X0348806Y0320888D01*
X0348655Y0320833D01*
X0348502Y0320782D01*
X0348348Y0320735D01*
X0348193Y0320692D01*
X0348037Y0320653D01*
X0347881Y0320617D01*
X0347723Y0320586D01*
X0347565Y0320558D01*
X0347406Y0320534D01*
X0347246Y0320514D01*
X0347086Y0320498D01*
X0346926Y0320486D01*
X0346765Y0320478D01*
X0346604Y0320474D01*
X0346444Y0320474D01*
X0346283Y0320478D01*
X0346122Y0320486D01*
X0345962Y0320498D01*
X0345802Y0320514D01*
X0345642Y0320534D01*
X0345483Y0320558D01*
X0345325Y0320586D01*
X0345167Y0320617D01*
X0345011Y0320653D01*
X0344855Y0320692D01*
X0344700Y0320735D01*
X0344546Y0320782D01*
X0344393Y0320833D01*
X0344242Y0320888D01*
X0344092Y0320946D01*
X0343944Y0321008D01*
X0343797Y0321074D01*
X0343652Y0321143D01*
X0343509Y0321216D01*
X0343367Y0321292D01*
X0343228Y0321372D01*
X0343090Y0321455D01*
X0342955Y0321542D01*
X0342821Y0321632D01*
X0342690Y0321725D01*
X0342562Y0321821D01*
X0342436Y0321921D01*
X0342312Y0322024D01*
X0342191Y0322129D01*
X0342072Y0322238D01*
X0341956Y0322349D01*
X0341843Y0322464D01*
X0341733Y0322581D01*
X0341626Y0322701D01*
X0341522Y0322823D01*
X0341421Y0322948D01*
X0341323Y0323076D01*
X0341228Y0323206D01*
X0341136Y0323338D01*
X0341048Y0323472D01*
X0340963Y0323609D01*
X0340881Y0323747D01*
X0340803Y0323888D01*
X0340729Y0324030D01*
X0340658Y0324174D01*
X0340590Y0324320D01*
X0340527Y0324468D01*
X0340466Y0324617D01*
X0340410Y0324768D01*
X0340357Y0324920D01*
X0340308Y0325073D01*
X0340263Y0325227D01*
X0340222Y0325382D01*
X0340184Y0325539D01*
X0340151Y0325696D01*
X0340121Y0325854D01*
X0340095Y0326013D01*
X0340074Y0326172D01*
X0340056Y0326332D01*
X0340042Y0326492D01*
X0340032Y0326653D01*
X0340026Y0326813D01*
X0340024Y0326974D01*
X0260024Y0326974D02*
X0260026Y0327135D01*
X0260032Y0327295D01*
X0260042Y0327456D01*
X0260056Y0327616D01*
X0260074Y0327776D01*
X0260095Y0327935D01*
X0260121Y0328094D01*
X0260151Y0328252D01*
X0260184Y0328409D01*
X0260222Y0328566D01*
X0260263Y0328721D01*
X0260308Y0328875D01*
X0260357Y0329028D01*
X0260410Y0329180D01*
X0260466Y0329331D01*
X0260527Y0329480D01*
X0260590Y0329628D01*
X0260658Y0329774D01*
X0260729Y0329918D01*
X0260803Y0330060D01*
X0260881Y0330201D01*
X0260963Y0330339D01*
X0261048Y0330476D01*
X0261136Y0330610D01*
X0261228Y0330742D01*
X0261323Y0330872D01*
X0261421Y0331000D01*
X0261522Y0331125D01*
X0261626Y0331247D01*
X0261733Y0331367D01*
X0261843Y0331484D01*
X0261956Y0331599D01*
X0262072Y0331710D01*
X0262191Y0331819D01*
X0262312Y0331924D01*
X0262436Y0332027D01*
X0262562Y0332127D01*
X0262690Y0332223D01*
X0262821Y0332316D01*
X0262955Y0332406D01*
X0263090Y0332493D01*
X0263228Y0332576D01*
X0263367Y0332656D01*
X0263509Y0332732D01*
X0263652Y0332805D01*
X0263797Y0332874D01*
X0263944Y0332940D01*
X0264092Y0333002D01*
X0264242Y0333060D01*
X0264393Y0333115D01*
X0264546Y0333166D01*
X0264700Y0333213D01*
X0264855Y0333256D01*
X0265011Y0333295D01*
X0265167Y0333331D01*
X0265325Y0333362D01*
X0265483Y0333390D01*
X0265642Y0333414D01*
X0265802Y0333434D01*
X0265962Y0333450D01*
X0266122Y0333462D01*
X0266283Y0333470D01*
X0266444Y0333474D01*
X0266604Y0333474D01*
X0266765Y0333470D01*
X0266926Y0333462D01*
X0267086Y0333450D01*
X0267246Y0333434D01*
X0267406Y0333414D01*
X0267565Y0333390D01*
X0267723Y0333362D01*
X0267881Y0333331D01*
X0268037Y0333295D01*
X0268193Y0333256D01*
X0268348Y0333213D01*
X0268502Y0333166D01*
X0268655Y0333115D01*
X0268806Y0333060D01*
X0268956Y0333002D01*
X0269104Y0332940D01*
X0269251Y0332874D01*
X0269396Y0332805D01*
X0269539Y0332732D01*
X0269681Y0332656D01*
X0269820Y0332576D01*
X0269958Y0332493D01*
X0270093Y0332406D01*
X0270227Y0332316D01*
X0270358Y0332223D01*
X0270486Y0332127D01*
X0270612Y0332027D01*
X0270736Y0331924D01*
X0270857Y0331819D01*
X0270976Y0331710D01*
X0271092Y0331599D01*
X0271205Y0331484D01*
X0271315Y0331367D01*
X0271422Y0331247D01*
X0271526Y0331125D01*
X0271627Y0331000D01*
X0271725Y0330872D01*
X0271820Y0330742D01*
X0271912Y0330610D01*
X0272000Y0330476D01*
X0272085Y0330339D01*
X0272167Y0330201D01*
X0272245Y0330060D01*
X0272319Y0329918D01*
X0272390Y0329774D01*
X0272458Y0329628D01*
X0272521Y0329480D01*
X0272582Y0329331D01*
X0272638Y0329180D01*
X0272691Y0329028D01*
X0272740Y0328875D01*
X0272785Y0328721D01*
X0272826Y0328566D01*
X0272864Y0328409D01*
X0272897Y0328252D01*
X0272927Y0328094D01*
X0272953Y0327935D01*
X0272974Y0327776D01*
X0272992Y0327616D01*
X0273006Y0327456D01*
X0273016Y0327295D01*
X0273022Y0327135D01*
X0273024Y0326974D01*
X0273022Y0326813D01*
X0273016Y0326653D01*
X0273006Y0326492D01*
X0272992Y0326332D01*
X0272974Y0326172D01*
X0272953Y0326013D01*
X0272927Y0325854D01*
X0272897Y0325696D01*
X0272864Y0325539D01*
X0272826Y0325382D01*
X0272785Y0325227D01*
X0272740Y0325073D01*
X0272691Y0324920D01*
X0272638Y0324768D01*
X0272582Y0324617D01*
X0272521Y0324468D01*
X0272458Y0324320D01*
X0272390Y0324174D01*
X0272319Y0324030D01*
X0272245Y0323888D01*
X0272167Y0323747D01*
X0272085Y0323609D01*
X0272000Y0323472D01*
X0271912Y0323338D01*
X0271820Y0323206D01*
X0271725Y0323076D01*
X0271627Y0322948D01*
X0271526Y0322823D01*
X0271422Y0322701D01*
X0271315Y0322581D01*
X0271205Y0322464D01*
X0271092Y0322349D01*
X0270976Y0322238D01*
X0270857Y0322129D01*
X0270736Y0322024D01*
X0270612Y0321921D01*
X0270486Y0321821D01*
X0270358Y0321725D01*
X0270227Y0321632D01*
X0270093Y0321542D01*
X0269958Y0321455D01*
X0269820Y0321372D01*
X0269681Y0321292D01*
X0269539Y0321216D01*
X0269396Y0321143D01*
X0269251Y0321074D01*
X0269104Y0321008D01*
X0268956Y0320946D01*
X0268806Y0320888D01*
X0268655Y0320833D01*
X0268502Y0320782D01*
X0268348Y0320735D01*
X0268193Y0320692D01*
X0268037Y0320653D01*
X0267881Y0320617D01*
X0267723Y0320586D01*
X0267565Y0320558D01*
X0267406Y0320534D01*
X0267246Y0320514D01*
X0267086Y0320498D01*
X0266926Y0320486D01*
X0266765Y0320478D01*
X0266604Y0320474D01*
X0266444Y0320474D01*
X0266283Y0320478D01*
X0266122Y0320486D01*
X0265962Y0320498D01*
X0265802Y0320514D01*
X0265642Y0320534D01*
X0265483Y0320558D01*
X0265325Y0320586D01*
X0265167Y0320617D01*
X0265011Y0320653D01*
X0264855Y0320692D01*
X0264700Y0320735D01*
X0264546Y0320782D01*
X0264393Y0320833D01*
X0264242Y0320888D01*
X0264092Y0320946D01*
X0263944Y0321008D01*
X0263797Y0321074D01*
X0263652Y0321143D01*
X0263509Y0321216D01*
X0263367Y0321292D01*
X0263228Y0321372D01*
X0263090Y0321455D01*
X0262955Y0321542D01*
X0262821Y0321632D01*
X0262690Y0321725D01*
X0262562Y0321821D01*
X0262436Y0321921D01*
X0262312Y0322024D01*
X0262191Y0322129D01*
X0262072Y0322238D01*
X0261956Y0322349D01*
X0261843Y0322464D01*
X0261733Y0322581D01*
X0261626Y0322701D01*
X0261522Y0322823D01*
X0261421Y0322948D01*
X0261323Y0323076D01*
X0261228Y0323206D01*
X0261136Y0323338D01*
X0261048Y0323472D01*
X0260963Y0323609D01*
X0260881Y0323747D01*
X0260803Y0323888D01*
X0260729Y0324030D01*
X0260658Y0324174D01*
X0260590Y0324320D01*
X0260527Y0324468D01*
X0260466Y0324617D01*
X0260410Y0324768D01*
X0260357Y0324920D01*
X0260308Y0325073D01*
X0260263Y0325227D01*
X0260222Y0325382D01*
X0260184Y0325539D01*
X0260151Y0325696D01*
X0260121Y0325854D01*
X0260095Y0326013D01*
X0260074Y0326172D01*
X0260056Y0326332D01*
X0260042Y0326492D01*
X0260032Y0326653D01*
X0260026Y0326813D01*
X0260024Y0326974D01*
X0239019Y0326974D02*
X0239021Y0327135D01*
X0239027Y0327295D01*
X0239037Y0327456D01*
X0239051Y0327616D01*
X0239069Y0327776D01*
X0239090Y0327935D01*
X0239116Y0328094D01*
X0239146Y0328252D01*
X0239179Y0328409D01*
X0239217Y0328566D01*
X0239258Y0328721D01*
X0239303Y0328875D01*
X0239352Y0329028D01*
X0239405Y0329180D01*
X0239461Y0329331D01*
X0239522Y0329480D01*
X0239585Y0329628D01*
X0239653Y0329774D01*
X0239724Y0329918D01*
X0239798Y0330060D01*
X0239876Y0330201D01*
X0239958Y0330339D01*
X0240043Y0330476D01*
X0240131Y0330610D01*
X0240223Y0330742D01*
X0240318Y0330872D01*
X0240416Y0331000D01*
X0240517Y0331125D01*
X0240621Y0331247D01*
X0240728Y0331367D01*
X0240838Y0331484D01*
X0240951Y0331599D01*
X0241067Y0331710D01*
X0241186Y0331819D01*
X0241307Y0331924D01*
X0241431Y0332027D01*
X0241557Y0332127D01*
X0241685Y0332223D01*
X0241816Y0332316D01*
X0241950Y0332406D01*
X0242085Y0332493D01*
X0242223Y0332576D01*
X0242362Y0332656D01*
X0242504Y0332732D01*
X0242647Y0332805D01*
X0242792Y0332874D01*
X0242939Y0332940D01*
X0243087Y0333002D01*
X0243237Y0333060D01*
X0243388Y0333115D01*
X0243541Y0333166D01*
X0243695Y0333213D01*
X0243850Y0333256D01*
X0244006Y0333295D01*
X0244162Y0333331D01*
X0244320Y0333362D01*
X0244478Y0333390D01*
X0244637Y0333414D01*
X0244797Y0333434D01*
X0244957Y0333450D01*
X0245117Y0333462D01*
X0245278Y0333470D01*
X0245439Y0333474D01*
X0245599Y0333474D01*
X0245760Y0333470D01*
X0245921Y0333462D01*
X0246081Y0333450D01*
X0246241Y0333434D01*
X0246401Y0333414D01*
X0246560Y0333390D01*
X0246718Y0333362D01*
X0246876Y0333331D01*
X0247032Y0333295D01*
X0247188Y0333256D01*
X0247343Y0333213D01*
X0247497Y0333166D01*
X0247650Y0333115D01*
X0247801Y0333060D01*
X0247951Y0333002D01*
X0248099Y0332940D01*
X0248246Y0332874D01*
X0248391Y0332805D01*
X0248534Y0332732D01*
X0248676Y0332656D01*
X0248815Y0332576D01*
X0248953Y0332493D01*
X0249088Y0332406D01*
X0249222Y0332316D01*
X0249353Y0332223D01*
X0249481Y0332127D01*
X0249607Y0332027D01*
X0249731Y0331924D01*
X0249852Y0331819D01*
X0249971Y0331710D01*
X0250087Y0331599D01*
X0250200Y0331484D01*
X0250310Y0331367D01*
X0250417Y0331247D01*
X0250521Y0331125D01*
X0250622Y0331000D01*
X0250720Y0330872D01*
X0250815Y0330742D01*
X0250907Y0330610D01*
X0250995Y0330476D01*
X0251080Y0330339D01*
X0251162Y0330201D01*
X0251240Y0330060D01*
X0251314Y0329918D01*
X0251385Y0329774D01*
X0251453Y0329628D01*
X0251516Y0329480D01*
X0251577Y0329331D01*
X0251633Y0329180D01*
X0251686Y0329028D01*
X0251735Y0328875D01*
X0251780Y0328721D01*
X0251821Y0328566D01*
X0251859Y0328409D01*
X0251892Y0328252D01*
X0251922Y0328094D01*
X0251948Y0327935D01*
X0251969Y0327776D01*
X0251987Y0327616D01*
X0252001Y0327456D01*
X0252011Y0327295D01*
X0252017Y0327135D01*
X0252019Y0326974D01*
X0252017Y0326813D01*
X0252011Y0326653D01*
X0252001Y0326492D01*
X0251987Y0326332D01*
X0251969Y0326172D01*
X0251948Y0326013D01*
X0251922Y0325854D01*
X0251892Y0325696D01*
X0251859Y0325539D01*
X0251821Y0325382D01*
X0251780Y0325227D01*
X0251735Y0325073D01*
X0251686Y0324920D01*
X0251633Y0324768D01*
X0251577Y0324617D01*
X0251516Y0324468D01*
X0251453Y0324320D01*
X0251385Y0324174D01*
X0251314Y0324030D01*
X0251240Y0323888D01*
X0251162Y0323747D01*
X0251080Y0323609D01*
X0250995Y0323472D01*
X0250907Y0323338D01*
X0250815Y0323206D01*
X0250720Y0323076D01*
X0250622Y0322948D01*
X0250521Y0322823D01*
X0250417Y0322701D01*
X0250310Y0322581D01*
X0250200Y0322464D01*
X0250087Y0322349D01*
X0249971Y0322238D01*
X0249852Y0322129D01*
X0249731Y0322024D01*
X0249607Y0321921D01*
X0249481Y0321821D01*
X0249353Y0321725D01*
X0249222Y0321632D01*
X0249088Y0321542D01*
X0248953Y0321455D01*
X0248815Y0321372D01*
X0248676Y0321292D01*
X0248534Y0321216D01*
X0248391Y0321143D01*
X0248246Y0321074D01*
X0248099Y0321008D01*
X0247951Y0320946D01*
X0247801Y0320888D01*
X0247650Y0320833D01*
X0247497Y0320782D01*
X0247343Y0320735D01*
X0247188Y0320692D01*
X0247032Y0320653D01*
X0246876Y0320617D01*
X0246718Y0320586D01*
X0246560Y0320558D01*
X0246401Y0320534D01*
X0246241Y0320514D01*
X0246081Y0320498D01*
X0245921Y0320486D01*
X0245760Y0320478D01*
X0245599Y0320474D01*
X0245439Y0320474D01*
X0245278Y0320478D01*
X0245117Y0320486D01*
X0244957Y0320498D01*
X0244797Y0320514D01*
X0244637Y0320534D01*
X0244478Y0320558D01*
X0244320Y0320586D01*
X0244162Y0320617D01*
X0244006Y0320653D01*
X0243850Y0320692D01*
X0243695Y0320735D01*
X0243541Y0320782D01*
X0243388Y0320833D01*
X0243237Y0320888D01*
X0243087Y0320946D01*
X0242939Y0321008D01*
X0242792Y0321074D01*
X0242647Y0321143D01*
X0242504Y0321216D01*
X0242362Y0321292D01*
X0242223Y0321372D01*
X0242085Y0321455D01*
X0241950Y0321542D01*
X0241816Y0321632D01*
X0241685Y0321725D01*
X0241557Y0321821D01*
X0241431Y0321921D01*
X0241307Y0322024D01*
X0241186Y0322129D01*
X0241067Y0322238D01*
X0240951Y0322349D01*
X0240838Y0322464D01*
X0240728Y0322581D01*
X0240621Y0322701D01*
X0240517Y0322823D01*
X0240416Y0322948D01*
X0240318Y0323076D01*
X0240223Y0323206D01*
X0240131Y0323338D01*
X0240043Y0323472D01*
X0239958Y0323609D01*
X0239876Y0323747D01*
X0239798Y0323888D01*
X0239724Y0324030D01*
X0239653Y0324174D01*
X0239585Y0324320D01*
X0239522Y0324468D01*
X0239461Y0324617D01*
X0239405Y0324768D01*
X0239352Y0324920D01*
X0239303Y0325073D01*
X0239258Y0325227D01*
X0239217Y0325382D01*
X0239179Y0325539D01*
X0239146Y0325696D01*
X0239116Y0325854D01*
X0239090Y0326013D01*
X0239069Y0326172D01*
X0239051Y0326332D01*
X0239037Y0326492D01*
X0239027Y0326653D01*
X0239021Y0326813D01*
X0239019Y0326974D01*
X0159019Y0326974D02*
X0159021Y0327135D01*
X0159027Y0327295D01*
X0159037Y0327456D01*
X0159051Y0327616D01*
X0159069Y0327776D01*
X0159090Y0327935D01*
X0159116Y0328094D01*
X0159146Y0328252D01*
X0159179Y0328409D01*
X0159217Y0328566D01*
X0159258Y0328721D01*
X0159303Y0328875D01*
X0159352Y0329028D01*
X0159405Y0329180D01*
X0159461Y0329331D01*
X0159522Y0329480D01*
X0159585Y0329628D01*
X0159653Y0329774D01*
X0159724Y0329918D01*
X0159798Y0330060D01*
X0159876Y0330201D01*
X0159958Y0330339D01*
X0160043Y0330476D01*
X0160131Y0330610D01*
X0160223Y0330742D01*
X0160318Y0330872D01*
X0160416Y0331000D01*
X0160517Y0331125D01*
X0160621Y0331247D01*
X0160728Y0331367D01*
X0160838Y0331484D01*
X0160951Y0331599D01*
X0161067Y0331710D01*
X0161186Y0331819D01*
X0161307Y0331924D01*
X0161431Y0332027D01*
X0161557Y0332127D01*
X0161685Y0332223D01*
X0161816Y0332316D01*
X0161950Y0332406D01*
X0162085Y0332493D01*
X0162223Y0332576D01*
X0162362Y0332656D01*
X0162504Y0332732D01*
X0162647Y0332805D01*
X0162792Y0332874D01*
X0162939Y0332940D01*
X0163087Y0333002D01*
X0163237Y0333060D01*
X0163388Y0333115D01*
X0163541Y0333166D01*
X0163695Y0333213D01*
X0163850Y0333256D01*
X0164006Y0333295D01*
X0164162Y0333331D01*
X0164320Y0333362D01*
X0164478Y0333390D01*
X0164637Y0333414D01*
X0164797Y0333434D01*
X0164957Y0333450D01*
X0165117Y0333462D01*
X0165278Y0333470D01*
X0165439Y0333474D01*
X0165599Y0333474D01*
X0165760Y0333470D01*
X0165921Y0333462D01*
X0166081Y0333450D01*
X0166241Y0333434D01*
X0166401Y0333414D01*
X0166560Y0333390D01*
X0166718Y0333362D01*
X0166876Y0333331D01*
X0167032Y0333295D01*
X0167188Y0333256D01*
X0167343Y0333213D01*
X0167497Y0333166D01*
X0167650Y0333115D01*
X0167801Y0333060D01*
X0167951Y0333002D01*
X0168099Y0332940D01*
X0168246Y0332874D01*
X0168391Y0332805D01*
X0168534Y0332732D01*
X0168676Y0332656D01*
X0168815Y0332576D01*
X0168953Y0332493D01*
X0169088Y0332406D01*
X0169222Y0332316D01*
X0169353Y0332223D01*
X0169481Y0332127D01*
X0169607Y0332027D01*
X0169731Y0331924D01*
X0169852Y0331819D01*
X0169971Y0331710D01*
X0170087Y0331599D01*
X0170200Y0331484D01*
X0170310Y0331367D01*
X0170417Y0331247D01*
X0170521Y0331125D01*
X0170622Y0331000D01*
X0170720Y0330872D01*
X0170815Y0330742D01*
X0170907Y0330610D01*
X0170995Y0330476D01*
X0171080Y0330339D01*
X0171162Y0330201D01*
X0171240Y0330060D01*
X0171314Y0329918D01*
X0171385Y0329774D01*
X0171453Y0329628D01*
X0171516Y0329480D01*
X0171577Y0329331D01*
X0171633Y0329180D01*
X0171686Y0329028D01*
X0171735Y0328875D01*
X0171780Y0328721D01*
X0171821Y0328566D01*
X0171859Y0328409D01*
X0171892Y0328252D01*
X0171922Y0328094D01*
X0171948Y0327935D01*
X0171969Y0327776D01*
X0171987Y0327616D01*
X0172001Y0327456D01*
X0172011Y0327295D01*
X0172017Y0327135D01*
X0172019Y0326974D01*
X0172017Y0326813D01*
X0172011Y0326653D01*
X0172001Y0326492D01*
X0171987Y0326332D01*
X0171969Y0326172D01*
X0171948Y0326013D01*
X0171922Y0325854D01*
X0171892Y0325696D01*
X0171859Y0325539D01*
X0171821Y0325382D01*
X0171780Y0325227D01*
X0171735Y0325073D01*
X0171686Y0324920D01*
X0171633Y0324768D01*
X0171577Y0324617D01*
X0171516Y0324468D01*
X0171453Y0324320D01*
X0171385Y0324174D01*
X0171314Y0324030D01*
X0171240Y0323888D01*
X0171162Y0323747D01*
X0171080Y0323609D01*
X0170995Y0323472D01*
X0170907Y0323338D01*
X0170815Y0323206D01*
X0170720Y0323076D01*
X0170622Y0322948D01*
X0170521Y0322823D01*
X0170417Y0322701D01*
X0170310Y0322581D01*
X0170200Y0322464D01*
X0170087Y0322349D01*
X0169971Y0322238D01*
X0169852Y0322129D01*
X0169731Y0322024D01*
X0169607Y0321921D01*
X0169481Y0321821D01*
X0169353Y0321725D01*
X0169222Y0321632D01*
X0169088Y0321542D01*
X0168953Y0321455D01*
X0168815Y0321372D01*
X0168676Y0321292D01*
X0168534Y0321216D01*
X0168391Y0321143D01*
X0168246Y0321074D01*
X0168099Y0321008D01*
X0167951Y0320946D01*
X0167801Y0320888D01*
X0167650Y0320833D01*
X0167497Y0320782D01*
X0167343Y0320735D01*
X0167188Y0320692D01*
X0167032Y0320653D01*
X0166876Y0320617D01*
X0166718Y0320586D01*
X0166560Y0320558D01*
X0166401Y0320534D01*
X0166241Y0320514D01*
X0166081Y0320498D01*
X0165921Y0320486D01*
X0165760Y0320478D01*
X0165599Y0320474D01*
X0165439Y0320474D01*
X0165278Y0320478D01*
X0165117Y0320486D01*
X0164957Y0320498D01*
X0164797Y0320514D01*
X0164637Y0320534D01*
X0164478Y0320558D01*
X0164320Y0320586D01*
X0164162Y0320617D01*
X0164006Y0320653D01*
X0163850Y0320692D01*
X0163695Y0320735D01*
X0163541Y0320782D01*
X0163388Y0320833D01*
X0163237Y0320888D01*
X0163087Y0320946D01*
X0162939Y0321008D01*
X0162792Y0321074D01*
X0162647Y0321143D01*
X0162504Y0321216D01*
X0162362Y0321292D01*
X0162223Y0321372D01*
X0162085Y0321455D01*
X0161950Y0321542D01*
X0161816Y0321632D01*
X0161685Y0321725D01*
X0161557Y0321821D01*
X0161431Y0321921D01*
X0161307Y0322024D01*
X0161186Y0322129D01*
X0161067Y0322238D01*
X0160951Y0322349D01*
X0160838Y0322464D01*
X0160728Y0322581D01*
X0160621Y0322701D01*
X0160517Y0322823D01*
X0160416Y0322948D01*
X0160318Y0323076D01*
X0160223Y0323206D01*
X0160131Y0323338D01*
X0160043Y0323472D01*
X0159958Y0323609D01*
X0159876Y0323747D01*
X0159798Y0323888D01*
X0159724Y0324030D01*
X0159653Y0324174D01*
X0159585Y0324320D01*
X0159522Y0324468D01*
X0159461Y0324617D01*
X0159405Y0324768D01*
X0159352Y0324920D01*
X0159303Y0325073D01*
X0159258Y0325227D01*
X0159217Y0325382D01*
X0159179Y0325539D01*
X0159146Y0325696D01*
X0159116Y0325854D01*
X0159090Y0326013D01*
X0159069Y0326172D01*
X0159051Y0326332D01*
X0159037Y0326492D01*
X0159027Y0326653D01*
X0159021Y0326813D01*
X0159019Y0326974D01*
X0138014Y0326974D02*
X0138016Y0327135D01*
X0138022Y0327295D01*
X0138032Y0327456D01*
X0138046Y0327616D01*
X0138064Y0327776D01*
X0138085Y0327935D01*
X0138111Y0328094D01*
X0138141Y0328252D01*
X0138174Y0328409D01*
X0138212Y0328566D01*
X0138253Y0328721D01*
X0138298Y0328875D01*
X0138347Y0329028D01*
X0138400Y0329180D01*
X0138456Y0329331D01*
X0138517Y0329480D01*
X0138580Y0329628D01*
X0138648Y0329774D01*
X0138719Y0329918D01*
X0138793Y0330060D01*
X0138871Y0330201D01*
X0138953Y0330339D01*
X0139038Y0330476D01*
X0139126Y0330610D01*
X0139218Y0330742D01*
X0139313Y0330872D01*
X0139411Y0331000D01*
X0139512Y0331125D01*
X0139616Y0331247D01*
X0139723Y0331367D01*
X0139833Y0331484D01*
X0139946Y0331599D01*
X0140062Y0331710D01*
X0140181Y0331819D01*
X0140302Y0331924D01*
X0140426Y0332027D01*
X0140552Y0332127D01*
X0140680Y0332223D01*
X0140811Y0332316D01*
X0140945Y0332406D01*
X0141080Y0332493D01*
X0141218Y0332576D01*
X0141357Y0332656D01*
X0141499Y0332732D01*
X0141642Y0332805D01*
X0141787Y0332874D01*
X0141934Y0332940D01*
X0142082Y0333002D01*
X0142232Y0333060D01*
X0142383Y0333115D01*
X0142536Y0333166D01*
X0142690Y0333213D01*
X0142845Y0333256D01*
X0143001Y0333295D01*
X0143157Y0333331D01*
X0143315Y0333362D01*
X0143473Y0333390D01*
X0143632Y0333414D01*
X0143792Y0333434D01*
X0143952Y0333450D01*
X0144112Y0333462D01*
X0144273Y0333470D01*
X0144434Y0333474D01*
X0144594Y0333474D01*
X0144755Y0333470D01*
X0144916Y0333462D01*
X0145076Y0333450D01*
X0145236Y0333434D01*
X0145396Y0333414D01*
X0145555Y0333390D01*
X0145713Y0333362D01*
X0145871Y0333331D01*
X0146027Y0333295D01*
X0146183Y0333256D01*
X0146338Y0333213D01*
X0146492Y0333166D01*
X0146645Y0333115D01*
X0146796Y0333060D01*
X0146946Y0333002D01*
X0147094Y0332940D01*
X0147241Y0332874D01*
X0147386Y0332805D01*
X0147529Y0332732D01*
X0147671Y0332656D01*
X0147810Y0332576D01*
X0147948Y0332493D01*
X0148083Y0332406D01*
X0148217Y0332316D01*
X0148348Y0332223D01*
X0148476Y0332127D01*
X0148602Y0332027D01*
X0148726Y0331924D01*
X0148847Y0331819D01*
X0148966Y0331710D01*
X0149082Y0331599D01*
X0149195Y0331484D01*
X0149305Y0331367D01*
X0149412Y0331247D01*
X0149516Y0331125D01*
X0149617Y0331000D01*
X0149715Y0330872D01*
X0149810Y0330742D01*
X0149902Y0330610D01*
X0149990Y0330476D01*
X0150075Y0330339D01*
X0150157Y0330201D01*
X0150235Y0330060D01*
X0150309Y0329918D01*
X0150380Y0329774D01*
X0150448Y0329628D01*
X0150511Y0329480D01*
X0150572Y0329331D01*
X0150628Y0329180D01*
X0150681Y0329028D01*
X0150730Y0328875D01*
X0150775Y0328721D01*
X0150816Y0328566D01*
X0150854Y0328409D01*
X0150887Y0328252D01*
X0150917Y0328094D01*
X0150943Y0327935D01*
X0150964Y0327776D01*
X0150982Y0327616D01*
X0150996Y0327456D01*
X0151006Y0327295D01*
X0151012Y0327135D01*
X0151014Y0326974D01*
X0151012Y0326813D01*
X0151006Y0326653D01*
X0150996Y0326492D01*
X0150982Y0326332D01*
X0150964Y0326172D01*
X0150943Y0326013D01*
X0150917Y0325854D01*
X0150887Y0325696D01*
X0150854Y0325539D01*
X0150816Y0325382D01*
X0150775Y0325227D01*
X0150730Y0325073D01*
X0150681Y0324920D01*
X0150628Y0324768D01*
X0150572Y0324617D01*
X0150511Y0324468D01*
X0150448Y0324320D01*
X0150380Y0324174D01*
X0150309Y0324030D01*
X0150235Y0323888D01*
X0150157Y0323747D01*
X0150075Y0323609D01*
X0149990Y0323472D01*
X0149902Y0323338D01*
X0149810Y0323206D01*
X0149715Y0323076D01*
X0149617Y0322948D01*
X0149516Y0322823D01*
X0149412Y0322701D01*
X0149305Y0322581D01*
X0149195Y0322464D01*
X0149082Y0322349D01*
X0148966Y0322238D01*
X0148847Y0322129D01*
X0148726Y0322024D01*
X0148602Y0321921D01*
X0148476Y0321821D01*
X0148348Y0321725D01*
X0148217Y0321632D01*
X0148083Y0321542D01*
X0147948Y0321455D01*
X0147810Y0321372D01*
X0147671Y0321292D01*
X0147529Y0321216D01*
X0147386Y0321143D01*
X0147241Y0321074D01*
X0147094Y0321008D01*
X0146946Y0320946D01*
X0146796Y0320888D01*
X0146645Y0320833D01*
X0146492Y0320782D01*
X0146338Y0320735D01*
X0146183Y0320692D01*
X0146027Y0320653D01*
X0145871Y0320617D01*
X0145713Y0320586D01*
X0145555Y0320558D01*
X0145396Y0320534D01*
X0145236Y0320514D01*
X0145076Y0320498D01*
X0144916Y0320486D01*
X0144755Y0320478D01*
X0144594Y0320474D01*
X0144434Y0320474D01*
X0144273Y0320478D01*
X0144112Y0320486D01*
X0143952Y0320498D01*
X0143792Y0320514D01*
X0143632Y0320534D01*
X0143473Y0320558D01*
X0143315Y0320586D01*
X0143157Y0320617D01*
X0143001Y0320653D01*
X0142845Y0320692D01*
X0142690Y0320735D01*
X0142536Y0320782D01*
X0142383Y0320833D01*
X0142232Y0320888D01*
X0142082Y0320946D01*
X0141934Y0321008D01*
X0141787Y0321074D01*
X0141642Y0321143D01*
X0141499Y0321216D01*
X0141357Y0321292D01*
X0141218Y0321372D01*
X0141080Y0321455D01*
X0140945Y0321542D01*
X0140811Y0321632D01*
X0140680Y0321725D01*
X0140552Y0321821D01*
X0140426Y0321921D01*
X0140302Y0322024D01*
X0140181Y0322129D01*
X0140062Y0322238D01*
X0139946Y0322349D01*
X0139833Y0322464D01*
X0139723Y0322581D01*
X0139616Y0322701D01*
X0139512Y0322823D01*
X0139411Y0322948D01*
X0139313Y0323076D01*
X0139218Y0323206D01*
X0139126Y0323338D01*
X0139038Y0323472D01*
X0138953Y0323609D01*
X0138871Y0323747D01*
X0138793Y0323888D01*
X0138719Y0324030D01*
X0138648Y0324174D01*
X0138580Y0324320D01*
X0138517Y0324468D01*
X0138456Y0324617D01*
X0138400Y0324768D01*
X0138347Y0324920D01*
X0138298Y0325073D01*
X0138253Y0325227D01*
X0138212Y0325382D01*
X0138174Y0325539D01*
X0138141Y0325696D01*
X0138111Y0325854D01*
X0138085Y0326013D01*
X0138064Y0326172D01*
X0138046Y0326332D01*
X0138032Y0326492D01*
X0138022Y0326653D01*
X0138016Y0326813D01*
X0138014Y0326974D01*
X0058014Y0326974D02*
X0058016Y0327135D01*
X0058022Y0327295D01*
X0058032Y0327456D01*
X0058046Y0327616D01*
X0058064Y0327776D01*
X0058085Y0327935D01*
X0058111Y0328094D01*
X0058141Y0328252D01*
X0058174Y0328409D01*
X0058212Y0328566D01*
X0058253Y0328721D01*
X0058298Y0328875D01*
X0058347Y0329028D01*
X0058400Y0329180D01*
X0058456Y0329331D01*
X0058517Y0329480D01*
X0058580Y0329628D01*
X0058648Y0329774D01*
X0058719Y0329918D01*
X0058793Y0330060D01*
X0058871Y0330201D01*
X0058953Y0330339D01*
X0059038Y0330476D01*
X0059126Y0330610D01*
X0059218Y0330742D01*
X0059313Y0330872D01*
X0059411Y0331000D01*
X0059512Y0331125D01*
X0059616Y0331247D01*
X0059723Y0331367D01*
X0059833Y0331484D01*
X0059946Y0331599D01*
X0060062Y0331710D01*
X0060181Y0331819D01*
X0060302Y0331924D01*
X0060426Y0332027D01*
X0060552Y0332127D01*
X0060680Y0332223D01*
X0060811Y0332316D01*
X0060945Y0332406D01*
X0061080Y0332493D01*
X0061218Y0332576D01*
X0061357Y0332656D01*
X0061499Y0332732D01*
X0061642Y0332805D01*
X0061787Y0332874D01*
X0061934Y0332940D01*
X0062082Y0333002D01*
X0062232Y0333060D01*
X0062383Y0333115D01*
X0062536Y0333166D01*
X0062690Y0333213D01*
X0062845Y0333256D01*
X0063001Y0333295D01*
X0063157Y0333331D01*
X0063315Y0333362D01*
X0063473Y0333390D01*
X0063632Y0333414D01*
X0063792Y0333434D01*
X0063952Y0333450D01*
X0064112Y0333462D01*
X0064273Y0333470D01*
X0064434Y0333474D01*
X0064594Y0333474D01*
X0064755Y0333470D01*
X0064916Y0333462D01*
X0065076Y0333450D01*
X0065236Y0333434D01*
X0065396Y0333414D01*
X0065555Y0333390D01*
X0065713Y0333362D01*
X0065871Y0333331D01*
X0066027Y0333295D01*
X0066183Y0333256D01*
X0066338Y0333213D01*
X0066492Y0333166D01*
X0066645Y0333115D01*
X0066796Y0333060D01*
X0066946Y0333002D01*
X0067094Y0332940D01*
X0067241Y0332874D01*
X0067386Y0332805D01*
X0067529Y0332732D01*
X0067671Y0332656D01*
X0067810Y0332576D01*
X0067948Y0332493D01*
X0068083Y0332406D01*
X0068217Y0332316D01*
X0068348Y0332223D01*
X0068476Y0332127D01*
X0068602Y0332027D01*
X0068726Y0331924D01*
X0068847Y0331819D01*
X0068966Y0331710D01*
X0069082Y0331599D01*
X0069195Y0331484D01*
X0069305Y0331367D01*
X0069412Y0331247D01*
X0069516Y0331125D01*
X0069617Y0331000D01*
X0069715Y0330872D01*
X0069810Y0330742D01*
X0069902Y0330610D01*
X0069990Y0330476D01*
X0070075Y0330339D01*
X0070157Y0330201D01*
X0070235Y0330060D01*
X0070309Y0329918D01*
X0070380Y0329774D01*
X0070448Y0329628D01*
X0070511Y0329480D01*
X0070572Y0329331D01*
X0070628Y0329180D01*
X0070681Y0329028D01*
X0070730Y0328875D01*
X0070775Y0328721D01*
X0070816Y0328566D01*
X0070854Y0328409D01*
X0070887Y0328252D01*
X0070917Y0328094D01*
X0070943Y0327935D01*
X0070964Y0327776D01*
X0070982Y0327616D01*
X0070996Y0327456D01*
X0071006Y0327295D01*
X0071012Y0327135D01*
X0071014Y0326974D01*
X0071012Y0326813D01*
X0071006Y0326653D01*
X0070996Y0326492D01*
X0070982Y0326332D01*
X0070964Y0326172D01*
X0070943Y0326013D01*
X0070917Y0325854D01*
X0070887Y0325696D01*
X0070854Y0325539D01*
X0070816Y0325382D01*
X0070775Y0325227D01*
X0070730Y0325073D01*
X0070681Y0324920D01*
X0070628Y0324768D01*
X0070572Y0324617D01*
X0070511Y0324468D01*
X0070448Y0324320D01*
X0070380Y0324174D01*
X0070309Y0324030D01*
X0070235Y0323888D01*
X0070157Y0323747D01*
X0070075Y0323609D01*
X0069990Y0323472D01*
X0069902Y0323338D01*
X0069810Y0323206D01*
X0069715Y0323076D01*
X0069617Y0322948D01*
X0069516Y0322823D01*
X0069412Y0322701D01*
X0069305Y0322581D01*
X0069195Y0322464D01*
X0069082Y0322349D01*
X0068966Y0322238D01*
X0068847Y0322129D01*
X0068726Y0322024D01*
X0068602Y0321921D01*
X0068476Y0321821D01*
X0068348Y0321725D01*
X0068217Y0321632D01*
X0068083Y0321542D01*
X0067948Y0321455D01*
X0067810Y0321372D01*
X0067671Y0321292D01*
X0067529Y0321216D01*
X0067386Y0321143D01*
X0067241Y0321074D01*
X0067094Y0321008D01*
X0066946Y0320946D01*
X0066796Y0320888D01*
X0066645Y0320833D01*
X0066492Y0320782D01*
X0066338Y0320735D01*
X0066183Y0320692D01*
X0066027Y0320653D01*
X0065871Y0320617D01*
X0065713Y0320586D01*
X0065555Y0320558D01*
X0065396Y0320534D01*
X0065236Y0320514D01*
X0065076Y0320498D01*
X0064916Y0320486D01*
X0064755Y0320478D01*
X0064594Y0320474D01*
X0064434Y0320474D01*
X0064273Y0320478D01*
X0064112Y0320486D01*
X0063952Y0320498D01*
X0063792Y0320514D01*
X0063632Y0320534D01*
X0063473Y0320558D01*
X0063315Y0320586D01*
X0063157Y0320617D01*
X0063001Y0320653D01*
X0062845Y0320692D01*
X0062690Y0320735D01*
X0062536Y0320782D01*
X0062383Y0320833D01*
X0062232Y0320888D01*
X0062082Y0320946D01*
X0061934Y0321008D01*
X0061787Y0321074D01*
X0061642Y0321143D01*
X0061499Y0321216D01*
X0061357Y0321292D01*
X0061218Y0321372D01*
X0061080Y0321455D01*
X0060945Y0321542D01*
X0060811Y0321632D01*
X0060680Y0321725D01*
X0060552Y0321821D01*
X0060426Y0321921D01*
X0060302Y0322024D01*
X0060181Y0322129D01*
X0060062Y0322238D01*
X0059946Y0322349D01*
X0059833Y0322464D01*
X0059723Y0322581D01*
X0059616Y0322701D01*
X0059512Y0322823D01*
X0059411Y0322948D01*
X0059313Y0323076D01*
X0059218Y0323206D01*
X0059126Y0323338D01*
X0059038Y0323472D01*
X0058953Y0323609D01*
X0058871Y0323747D01*
X0058793Y0323888D01*
X0058719Y0324030D01*
X0058648Y0324174D01*
X0058580Y0324320D01*
X0058517Y0324468D01*
X0058456Y0324617D01*
X0058400Y0324768D01*
X0058347Y0324920D01*
X0058298Y0325073D01*
X0058253Y0325227D01*
X0058212Y0325382D01*
X0058174Y0325539D01*
X0058141Y0325696D01*
X0058111Y0325854D01*
X0058085Y0326013D01*
X0058064Y0326172D01*
X0058046Y0326332D01*
X0058032Y0326492D01*
X0058022Y0326653D01*
X0058016Y0326813D01*
X0058014Y0326974D01*
M02*
