%
M48
M72
T01C0.0150
T02C0.0400
T03C0.1300
%
T01
X8951Y6496
X9801Y6246
X9951Y7496
X9451Y7496
X8201Y8246
X8201Y9296
X6451Y8496
X10951Y7496
X12451Y7496
X11476Y9021
X13451Y10496
X14451Y8996
X14451Y8496
X16552Y8496
X18302Y8246
X18302Y9296
X19552Y7496
X20052Y7496
X21052Y7496
X22552Y7496
X21577Y9021
X23552Y10496
X24552Y8996
X24552Y8496
X26652Y8496
X28402Y8246
X28402Y9296
X29652Y7496
X30152Y7496
X31152Y7496
X32652Y7496
X31677Y9021
X33652Y10496
X34652Y8996
X34652Y8496
X32652Y5996
X30002Y6246
X29152Y6496
X22552Y5996
X19902Y6246
X19052Y6496
X12451Y5996
X12451Y16097
X12451Y17597
X10951Y17597
X9951Y17597
X9451Y17597
X8951Y16597
X9801Y16347
X8201Y18347
X8201Y19397
X6451Y18597
X11476Y19122
X13451Y20597
X14451Y19097
X14451Y18597
X16552Y18597
X18302Y18347
X18302Y19397
X19552Y17597
X20052Y17597
X21052Y17597
X22552Y17597
X22552Y16097
X19902Y16347
X19052Y16597
X21577Y19122
X23552Y20597
X24552Y19097
X24552Y18597
X26652Y18597
X28402Y18347
X28402Y19397
X29652Y17597
X30152Y17597
X31152Y17597
X32652Y17597
X34652Y18597
X34652Y19097
X33652Y20597
X31677Y19122
X29152Y16597
X30002Y16347
X32652Y16097
X32652Y26197
X32652Y27697
X31152Y27697
X30152Y27697
X29652Y27697
X29152Y26697
X30002Y26447
X28402Y28447
X28402Y29497
X26652Y28697
X24552Y28697
X24552Y29197
X23552Y30697
X21577Y29222
X21052Y27697
X20052Y27697
X19552Y27697
X19052Y26697
X19902Y26447
X18302Y28447
X18302Y29497
X16552Y28697
X14451Y28697
X14451Y29197
X13451Y30697
X11476Y29222
X10951Y27697
X9951Y27697
X9451Y27697
X8201Y28447
X8201Y29497
X6451Y28697
X8951Y26697
X9801Y26447
X12451Y26197
X12451Y27697
X22552Y27697
X22552Y26197
X31677Y29222
X33652Y30697
X34652Y29197
X34652Y28697
T02
X7951Y3996
X8951Y3996
X9951Y3996
X10951Y3996
X11951Y3996
X12951Y3996
X18052Y3996
X19052Y3996
X20052Y3996
X21052Y3996
X22052Y3996
X23052Y3996
X28152Y3996
X29152Y3996
X30152Y3996
X31152Y3996
X32152Y3996
X33152Y3996
X33152Y14097
X32152Y14097
X31152Y14097
X30152Y14097
X29152Y14097
X28152Y14097
X23052Y14097
X22052Y14097
X21052Y14097
X20052Y14097
X19052Y14097
X18052Y14097
X12951Y14097
X11951Y14097
X10951Y14097
X9951Y14097
X8951Y14097
X7951Y14097
X7951Y24197
X8951Y24197
X9951Y24197
X10951Y24197
X11951Y24197
X12951Y24197
X18052Y24197
X19052Y24197
X20052Y24197
X21052Y24197
X22052Y24197
X23052Y24197
X28152Y24197
X29152Y24197
X30152Y24197
X31152Y24197
X32152Y24197
X33152Y24197
T03
X34652Y22597
X26652Y22597
X24552Y22597
X16552Y22597
X14451Y22597
X6451Y22597
X6451Y32697
X14451Y32697
X16552Y32697
X24552Y32697
X26652Y32697
X34652Y32697
X34652Y12496
X26652Y12496
X24552Y12496
X16552Y12496
X14451Y12496
X6451Y12496
M30
